<?xml version="1.0" encoding="UTF-8"?>
<svg width="57px" height="50px" viewBox="0 0 57 50" version="1.1" xmlns="http://www.w3.org/2000/svg" xmlns:xlink="http://www.w3.org/1999/xlink">
    <!-- Generator: Sketch 51.2 (57519) - http://www.bohemiancoding.com/sketch -->
    <title>au</title>
    <desc>Created with Sketch.</desc>
    <defs></defs>
    <g id="Page-1" stroke="none" stroke-width="1" fill="none" fill-rule="evenodd">
        <path d="M56.1397813,25.0532093 C55.8956398,25.2366575 56.5380554,25.816989 56.0774222,26.3067723 C55.6185539,26.7942037 55.8632837,27.4680232 55.9250544,27.6814582 C55.9868252,27.8943052 55.588551,28.7186463 55.588551,29.4206886 C55.588551,30.121555 54.8867178,30.7636238 54.8555383,31.3439553 C54.826712,31.9242868 54.3066612,32.1982832 54.0313403,32.2905953 C53.7560193,32.3811435 52.6876798,34.2432607 52.5653149,35.2504621 C52.4435383,36.2576636 51.6493432,36.4099491 51.5269783,37.3565891 C51.4052017,38.303817 51.2828368,40.1335957 51.0692866,40.1335957 C50.8557363,40.1335957 48.7178807,40.2253198 48.1984183,40.6521898 C47.6795441,41.0796477 47.3736319,41.4153815 46.8859373,41.5994177 C46.3970661,41.7828659 46.2747012,42.0574503 46.2747012,42.3626094 C46.2747012,42.6677685 46.031148,42.3937721 45.8170095,42.0268756 C45.6034592,41.6605671 45.0528173,41.6605671 44.9004495,41.2037104 C44.7474934,40.7456778 44.5639461,41.0802357 44.5339431,41.4777068 C44.5033519,41.8745901 43.8609363,41.2948466 44.2898017,41.0496609 C44.7174905,40.8062392 43.9232953,40.1047849 43.7091568,40.835638 C43.4961948,41.568843 42.3960875,42.2097359 41.9683987,41.8440154 C41.54071,41.4777068 39.952908,40.8668007 39.1893041,40.8668007 C38.4257002,40.8668007 38.8227977,40.7762525 37.7838729,40.2576584 C36.7461246,39.7373004 36.9296719,39.1275702 37.0514485,38.4866773 C37.1738133,37.8451964 36.4343294,36.648079 35.8913353,36.5928094 C35.5854231,36.5622347 35.0047782,36.9597059 34.8835899,36.6551347 C34.7606367,36.3493877 35.5860114,35.8008069 35.0671372,35.1269874 C34.5470865,34.4566957 34.302945,34.7918415 34.302945,35.5244586 C34.302945,36.2576636 32.9286933,36.0436406 33.020467,35.6467574 C33.1122406,35.2510501 33.6005236,35.9842551 33.8752563,34.5795825 C34.1494006,33.1743219 34.8835899,32.9914616 34.4559011,32.6263291 C34.0282123,32.2600206 33.3857967,33.1143485 33.2940231,33.8469655 C33.2022494,34.5795825 32.5310075,34.0304137 31.9203597,34.8847416 C31.3091236,35.7390695 31.0955733,35.891355 30.7908377,35.2816248 C30.4849255,34.6707186 31.0343909,34.5490078 30.4543343,33.7552414 C29.8742777,32.9614749 28.9577177,32.9914616 29.233627,32.5957544 C29.5083596,32.1982832 29.5689538,31.8319747 29.141265,31.7396626 C28.7135762,31.6491144 28.7747587,31.3127926 28.3470699,31.3439553 C27.9193811,31.37453 27.5522865,31.0376203 26.7280884,31.1305203 C25.9038904,31.2216565 25.7821138,30.122143 25.0491011,30.3067672 C24.3160884,30.4896274 22.9112455,30.3667406 22.1476415,30.6730757 C21.3846259,30.9782348 20.2845186,31.6185397 19.0938142,31.5573903 C17.9025215,31.4974168 17.505424,31.5274035 17.047144,31.9542735 C16.5894523,32.3823194 15.4234561,32.4193618 15.2146122,32.9920496 C14.9710591,33.6641052 14.2692259,34.1521246 12.6508327,34.0615764 C11.0318512,33.9686763 9.44346099,33.8469655 9.10754587,34.2732475 C8.77163074,34.7018813 8.83340147,34.9159043 8.13098001,34.947067 C7.42914683,34.9752898 7.27560244,35.7702322 6.75614,35.7702322 C6.23667756,35.7702322 4.71005804,35.9225177 4.06881901,35.4956478 C3.42757998,35.0676019 3.64113023,34.6707186 3.06048534,34.6095692 C2.48219363,34.5484198 2.17569314,33.693504 2.69515559,33.693504 C3.21402974,33.693504 3.61171559,33.3877569 3.48817413,32.5645917 C3.36639754,31.7396626 3.97704535,31.0082215 3.79467462,30.7330491 C3.61171559,30.4584647 2.51160827,28.6880716 2.57279071,27.5891461 C2.63338485,26.4902205 1.44268046,25.7570155 1.41208924,24.9938238 C1.38032143,24.231808 -0.116295161,22.1568437 0.00724630299,21.8810834 C0.143141914,21.5747483 0.800264844,22.8882848 0.984400455,22.6142884 C1.16735948,22.3385281 0.434346793,21.7905352 0.586714599,21.6382497 C0.739670697,21.4842002 1.19736241,22.765986 1.41150095,22.3385281 C1.6244629,21.9122461 1.25854485,21.3624893 0.617305819,20.5081614 C-0.0245215021,19.6526576 0.403167281,18.9829539 0.862035576,18.3103104 C1.31972729,17.6388428 0.586714599,17.3948331 0.800264844,16.7539402 C1.01381509,16.1130473 1.50209802,15.5338918 1.50209802,15.7473267 C1.50209802,15.9589978 1.44209216,16.7845149 1.65564241,16.6016546 C1.86919265,16.4176184 1.86919265,15.6244399 2.3880668,15.5944532 C2.90811754,15.5632905 3.64054193,15.1364206 4.09882194,14.6484012 C4.55651365,14.1603818 5.65720926,13.8540468 5.74780634,14.250342 C5.83957999,14.6484012 6.63259854,14.0063323 7.06028732,13.6705985 C7.4879761,13.3342768 7.94566781,13.6106251 8.37335659,13.2437286 C8.80045708,12.878008 10.1758854,13.3342768 10.8171244,12.571673 C11.4577751,11.8090692 12.5578825,10.7701172 12.8014356,10.6178316 C13.0461654,10.465546 12.3125644,9.58005548 12.8632064,9.00031199 C13.4120835,8.4205685 13.9303693,7.99311057 13.9303693,8.45114321 C13.9303693,8.90917584 14.2680493,9.70294228 14.4815996,9.48950731 C14.6957381,9.27548436 15.0316532,9.30605906 14.9092883,8.78805296 C14.7869235,8.26828294 14.2980522,7.8719877 14.6957381,7.74968887 C15.0922474,7.62621409 15.7640776,8.2976817 15.7034835,7.84023704 C15.6428893,7.3822044 15.5805303,6.49788979 15.9776279,6.49788979 C16.375902,6.49788979 16.375902,6.07043187 16.6194552,6.03985716 C16.8635966,6.00928245 16.4059049,5.4901004 16.8635966,5.43012694 C17.3224649,5.36838955 17.9942952,5.82642218 17.9325245,5.39955223 C17.8719303,4.97150633 17.9631157,4.75865933 18.3608015,4.75865933 C18.7578991,4.75865933 18.7578991,4.3312014 19.1544084,4.30003872 C19.5520942,4.27005198 20.192745,4.81922077 20.3162864,5.15495457 C20.4374747,5.4901004 21.1710757,5.21610399 21.0787137,5.79643545 C20.9869401,6.37735489 21.5669967,6.62018862 21.5369937,6.10159455 C21.5058142,5.58358845 21.9646825,5.58358845 22.4217859,6.04044513 C22.8806542,6.49847777 23.6442581,6.46849104 23.1247957,5.88815957 C22.6065098,5.30665216 22.6359245,5.00208103 23.0636133,4.72690867 C23.4918903,4.45232428 23.2171577,4.14775316 23.6142552,3.71970725 C24.0113528,3.29166135 24.1025381,2.43792145 24.5914094,2.46849615 C25.0802806,2.49965884 24.4090386,1.88875267 24.9885069,2.07278888 C25.5685635,2.25388523 27.5528748,1.91932737 27.095183,1.43072003 C26.636903,0.942700665 26.1792113,0.66870425 26.5763089,0.514654763 C26.9739947,0.362369201 27.187545,1.21669708 27.8587869,1.30959715 C28.5306172,1.39955735 30.240784,1.73587913 30.5466962,2.13276235 C30.8531967,2.52846962 31.4320767,1.73587913 31.5844445,1.7058924 C31.7374006,1.67414174 31.9209479,2.49848289 32.1044953,2.43733347 C32.2880426,2.37677203 32.1350865,1.79644057 32.6233694,1.88816469 C33.1134172,1.97988881 33.3869733,2.37677203 32.9292816,2.56022028 C32.4715899,2.74308055 33.0816494,3.14055174 32.4715899,3.4751096 C31.8603538,3.81201935 31.3408914,3.71911928 31.5850328,4.11717845 C31.8303509,4.51406167 31.9215362,4.94210757 31.4632562,5.2772534 C31.0055645,5.61416316 30.853785,5.61416316 31.3408914,5.94930899 C31.8303509,6.28504279 32.0439011,6.37735489 32.2574514,6.98649713 C32.4721782,7.59622735 32.9898758,6.95592243 33.6622943,7.47510448 C34.3341245,7.99311057 34.5788543,8.60460472 35.0059548,8.54286733 C35.4330553,8.48112994 36.2578416,8.7257276 36.2278387,9.12261082 C36.1972475,9.51949404 37.1744016,10.0992375 37.906826,9.82524111 C38.640427,9.55065672 38.7021977,8.7257276 39.0675275,8.20713353 C39.4346221,7.68795148 39.4046192,6.86361033 39.4958046,6.10100657 C39.5875782,5.33781484 39.2510748,3.99546759 39.6175812,3.65973379 C39.9852641,3.32341201 39.5263958,2.37736001 39.8017168,2.13276235 C40.0758612,1.88875267 40.1682231,1.43072003 40.1364553,1.03383681 C40.1064524,0.638129542 40.8094621,-0.156812848 41.0236007,0.0272233713 C41.2371509,0.209495665 41.2671539,1.37074657 41.6948426,1.7058924 C42.1225314,2.04103823 42.3972641,3.20111318 42.33667,3.90256752 C42.2760758,4.60402186 42.244308,5.33781484 42.7643587,5.27666543 C43.2826446,5.21492804 43.8026953,4.90976894 43.8332866,5.24609072 C43.8627012,5.58182452 44.8104407,5.73352211 44.7492583,6.34325233 C44.6892524,6.95474648 44.9633968,7.47334055 44.9328056,8.02250933 C44.9022144,8.57226609 45.7570036,8.78628904 45.7570036,9.45716867 C45.7570036,10.1280483 45.848189,10.9224027 46.0923305,11.1364257 C46.3376485,11.3486847 45.848189,11.9601788 46.4288339,12.0813017 C47.0088905,12.2030126 49.6356173,13.5465358 49.6044378,13.942243 C49.5738466,14.3397142 49.6044378,14.6154746 50.0627178,14.9506204 C50.5204095,15.2857662 50.6733656,15.6526627 50.5810037,15.9572339 C50.48923,16.2641569 50.5810037,17.0273486 50.9169188,16.9044618 C51.2545988,16.782163 51.498152,16.5375653 51.7117022,16.8439004 C51.9258407,17.1478835 52.3529412,16.567552 52.2611676,17.300757 C52.1711588,18.0321981 52.2611676,18.8259646 52.7512154,18.7360044 C53.23891,18.6431043 52.9029949,19.4986081 53.4224573,19.3757213 C53.9407432,19.2540105 54.3990232,20.1083383 54.4913851,20.4134974 C54.5831588,20.7192445 55.0102593,21.8787315 55.4073569,21.4818483 C55.8044544,21.0843771 55.8956398,20.9938289 55.7438603,21.7576086 C55.5909042,22.5190364 55.5909042,24.1988814 55.8044544,24.0460079 C56.0180047,23.8937223 56.3850993,24.869761 56.1397813,25.0532093 Z M25.5397372,1.15495969 C25.4785547,0.788063203 23.304225,1.2114053 23.7677996,1.58182964 C24.0737118,1.82525135 25.6003313,1.5212682 25.5397372,1.15495969 Z M32.411584,37.2936758 C32.7474992,37.5982469 33.8770211,37.5071107 34.0605684,37.0802408 C34.2435275,36.6533708 32.1097899,37.0214433 32.411584,37.2936758 Z M46.2146953,45.7775691 C47.04007,45.6876089 48.3831422,44.7715436 48.5366866,45.2913136 C48.6896427,45.8104957 49.0861519,47.3956766 48.597869,47.3956766 C48.1089978,47.3956766 48.5360983,48.7086251 48.2007715,48.8920734 C47.8648563,49.0755216 47.4677588,48.4346287 47.4065763,48.7391998 C47.3453939,49.0443589 47.49835,49.4724048 47.1006641,49.4412422 C46.7029783,49.4112554 46.9165285,50.0821351 46.3376485,49.9915869 C45.7570036,49.8998628 44.077428,48.404054 44.5051168,47.8542972 C44.9322173,47.3051285 43.5273744,45.1984135 43.8627012,45.1084533 C44.1533178,45.0279007 45.3910856,45.8704691 46.2146953,45.7775691 Z" id="au" fill="#000000"></path>
    </g>
</svg>