<?xml version="1.0" encoding="UTF-8"?>
<svg width="45px" height="50px" viewBox="0 0 45 50" version="1.1" xmlns="http://www.w3.org/2000/svg" xmlns:xlink="http://www.w3.org/1999/xlink">
    <!-- Generator: Sketch 51.2 (57519) - http://www.bohemiancoding.com/sketch -->
    <title>de</title>
    <desc>Created with Sketch.</desc>
    <defs></defs>
    <g id="Page-1" stroke="none" stroke-width="1" fill="none" fill-rule="evenodd">
        <path d="M5.63227077,13.166675 C4.44436533,14.9347591 2.82274622,15.0842348 3.11331301,15.5241205 C3.41456242,15.9682769 5.19001101,17.4480865 4.74347821,18.1869236 C4.29908193,18.927896 3.70726573,18.485875 3.70726573,19.8140735 C3.70726573,21.1444073 1.63484078,21.1444073 0.899877701,21.1444073 C0.156368542,21.1444073 1.0451611,22.4768765 0.602901341,23.508259 C0.156368542,24.5396414 0.156368542,26.6109477 0.00894862227,27.4971251 C-0.134198256,28.3854379 1.48955738,29.8631121 1.34213746,30.5998139 C1.19899058,31.3429217 0.00894862227,31.9322831 0.312334544,32.5195091 C0.585809177,33.0853814 1.65193294,33.9288515 1.89122325,36.6599864 C2.40185166,36.8094621 2.8206097,37.0016451 3.00435047,37.2493477 C3.6730814,38.1355252 4.78193558,38.7996244 6.21981393,38.7996244 C7.66196531,38.7996244 8.2217337,39.8011117 8.88405508,39.6879372 C9.5506495,39.5768981 11.3260981,40.1363644 9.88608323,41.3513884 C8.44393184,42.5706831 8.2217337,44.0120561 7.88843649,45.4512937 C7.6705114,46.3865846 7.68333052,47.6827525 7.4525863,48.4835153 C8.86055335,48.6073666 10.9415244,48.7098642 11.6957162,48.3361749 C12.8793486,47.7468135 13.6164481,47.7468135 15.0949204,48.1909699 C15.9773034,48.4536201 17.1587993,49.0301693 17.9834962,49.4508367 C18.0732301,49.1518852 18.2313326,48.9255363 18.5304455,48.8892351 C19.5324736,48.7803313 20.7545634,50.7726291 21.4168848,49.662238 C22.0856157,48.5539824 23.6345931,48.7803313 24.4101501,49.220217 C25.1878436,49.662238 26.4077968,49.888587 27.2965894,48.9981388 C28.1832454,48.1119614 31.620907,47.6699403 32.3986005,48.0009223 C33.176294,48.3340396 35.1696677,49.2180816 34.3941107,46.5574139 C33.6185538,43.8988816 36.0563237,44.4540771 36.3917575,43.4547252 C36.7229181,42.4575087 39.6072209,42.017623 39.1649612,41.2403493 C38.7227014,40.4652109 35.0628417,38.1355252 33.9539875,37.3625222 C32.8429968,36.5852485 32.8429968,34.1402529 32.289638,33.1494425 C31.7362791,32.1479552 30.5141894,30.8197567 31.9563407,30.4866394 C33.3984921,30.1535221 35.9494977,29.600462 37.1715875,28.4900709 C38.3872677,27.3796799 40.604976,27.2729116 41.273707,26.606677 C41.9403014,25.938307 43.4914153,27.1618725 43.9336751,26.4913671 C44.3780714,25.8272679 44.7070955,24.496934 44.0490472,23.7217957 C43.3803162,22.9466573 42.93592,21.6163235 42.8290939,19.7350649 C42.7158584,17.8495355 42.160363,17.9584393 42.160363,17.0722618 C42.160363,16.183949 41.8292023,15.0778287 41.0493723,14.6294016 C40.2759519,14.1895159 39.9426546,13.858534 40.7182116,12.6371039 C41.4959051,11.4156738 41.1604714,8.31298502 40.8271742,7.42894295 C40.7630785,7.25170746 40.7694881,7.04244146 40.805809,6.82249863 C40.604976,6.72854246 40.4468735,6.53208867 40.3870509,6.20751283 C40.1648528,5.02451933 39.3551115,4.58249829 37.4301065,4.58249829 C35.5051014,4.58249829 38.6116023,2.6606677 37.8702297,1.69761703 C37.1331301,0.740972464 35.2102616,3.46997191 33.439086,2.87847516 C31.6615009,2.29338451 29.3732874,4.95405221 27.8200369,6.13277498 C26.2646499,7.31790385 24.0469416,5.91283214 25.230574,4.21094438 C26.4120699,2.51332735 25.230574,2.65853233 23.4529889,3.32903767 C21.6796768,3.99313691 19.5367467,3.17956196 19.7568083,1.55241205 C19.8144943,1.14242152 19.6820301,0.762326138 19.4662415,0.401449058 C18.5988141,0.523164996 17.9322197,0.548789404 17.6138781,0.444156405 C16.821229,0.183641591 15.0158691,0.0405719793 13.0481337,0 C13.6356768,0.858417667 14.27236,1.6997524 13.915561,2.365987 C13.2532397,3.62585373 14.2873156,4.80884723 15.2466133,6.65380461 C16.2101841,8.50303272 13.180598,7.46737956 13.1058197,8.65037306 C13.028905,9.83336656 10.2984317,8.57563521 9.40750262,8.12934343 C8.5229831,7.68945776 5.56390211,7.98413845 5.63868033,8.72297555 C5.6664551,9.01979161 5.61945165,9.42337604 5.48912389,9.77144091 C5.88010716,11.2042724 6.05743836,12.521794 5.63227077,13.166675 Z" id="de" fill="#000000"></path>
    </g>
</svg>