<?xml version="1.0" encoding="UTF-8"?>
<svg width="60px" height="50px" viewBox="0 0 60 50" version="1.1" xmlns="http://www.w3.org/2000/svg" xmlns:xlink="http://www.w3.org/1999/xlink">
    <!-- Generator: Sketch 51.2 (57519) - http://www.bohemiancoding.com/sketch -->
    <title>fr</title>
    <desc>Created with Sketch.</desc>
    <defs></defs>
    <g id="Page-1" stroke="none" stroke-width="1" fill="none" fill-rule="evenodd">
        <path d="M52.2984395,11.393221 C51.7519302,11.4863058 51.2932842,10.6625936 50.1071308,10.6625936 C48.9244918,10.6625936 48.0124716,10.1163794 47.4624478,9.38750831 C46.9159386,8.6551246 44.0920147,8.47598038 43.1782372,8.6551246 C42.2644598,8.83953776 41.9920838,7.106054 41.076549,7.28871085 C40.1662861,7.4713677 39.8939101,6.10319764 39.8939101,5.37432656 C39.8939101,4.64721179 38.8905121,5.92405342 38.0698696,6.28936712 C37.2492272,6.65292451 36.9733367,5.4674113 36.8837162,4.92119706 C36.7923384,4.37322651 35.1510535,3.82701228 34.3286538,3.37212647 C33.5080113,2.91548434 32.5959911,1.45598585 32.2304801,2.09528483 C31.8684836,2.73107117 30.8633284,1.18200058 30.7719506,0.540945287 C30.7122036,0.121185795 30.4257695,0.252909485 30.2412568,2.84217094e-14 C29.9284637,0.0632273712 29.6191852,0.10186632 29.3116639,0.0860594775 C27.8513772,0.026344738 26.5756032,1.18200058 26.8216203,3.61625437 C27.0623655,6.0434829 25.0538123,6.28761081 22.5620114,6.47026766 C20.0684532,6.65292451 20.9207264,8.59716617 19.887455,9.38750831 C18.8541835,10.1796068 15.2025881,8.96423619 14.7175831,7.62767981 C14.2325781,6.29112344 10.948251,7.62767981 12.3452762,9.20309515 C13.7458159,10.7855357 13.6825544,12.9739053 12.8952999,13.5798343 C12.1045309,14.1892759 10.3999845,12.6085916 9.3034515,13.3971774 C8.20867578,14.1875196 8.14892879,12.6683064 6.81340785,12.1870758 C5.47437238,11.6970637 4.92434863,12.7894921 2.79805871,12.6085916 C0.666496996,12.4259348 -0.547772702,13.639549 0.242996276,14.551077 C1.03200799,15.4626049 0.121745033,16.3126618 0.728001249,17.1047602 C1.33777199,17.8951024 4.13357965,17.7704039 6.20012258,18.8681014 C8.27018003,19.9587735 8.75342774,19.0490019 9.79021374,19.8411004 C10.8252425,20.6314425 11.0695022,20.1431867 11.1274919,21.6659125 C11.1907535,23.1833695 12.3435189,24.6393553 14.3503148,25.1908385 C16.358868,25.738809 14.8370771,27.0736091 15.4450906,28.4136781 C16.053104,29.7502345 14.5330703,31.6927198 14.8370771,33.3348752 C15.1428411,34.9770305 13.8635526,40.261785 12.8935427,40.7500408 C12.8302811,40.7851671 12.7301171,40.7851671 12.6492829,40.7974613 C13.5613031,41.2523471 14.5190122,41.6475182 14.9899591,41.9566298 C15.8791349,42.5537772 17.7998248,43.1386303 18.9859783,43.8797956 C20.16686,44.6227172 22.240432,44.476943 22.240432,43.5829783 C22.240432,42.6995514 23.4230709,43.2914298 24.1646365,44.0290825 C24.9026875,44.7684915 27.7160678,44.9177783 29.0480742,45.2110831 C30.1709662,45.4604799 31.8069793,45.3041678 33.2725379,45.3340252 C33.2145481,45.0020815 33.1425003,44.6560873 33.0247636,44.276723 C32.2954988,41.9056966 34.4217888,40.5076692 36.4285847,40.2020702 C38.4336234,39.8999839 42.8162408,41.1153545 43.9725208,41.8424692 C45.1252862,42.5748529 46.7103387,42.3921961 48.7171346,40.2635413 C49.7293189,39.1904323 50.5587477,38.7987738 51.2932842,38.5880159 C51.3477594,38.1120543 51.5955337,37.6255548 51.7554448,37.1970138 C52.029578,36.4663864 50.7520468,36.6472869 49.8382693,36.5559585 C48.9262491,36.4663864 48.2901194,35.5548584 48.9262491,34.5502457 C49.5658933,33.5473894 48.3797399,33.456061 47.7400956,32.4549609 C47.1004514,31.4538609 48.0124716,31.7260898 48.5589808,31.4538609 C49.1072473,31.1798756 49.8382693,30.0839345 49.3796233,29.8117055 C48.9262491,29.5394766 48.5589808,28.9001776 48.9262491,27.8059928 C49.2917601,26.7082954 48.1969844,26.616967 48.1969844,25.7967675 C48.1969844,24.976568 47.1935864,24.6112543 46.3711867,25.6141106 C45.5505442,26.6152107 45.2746537,25.8880959 45.8211629,24.2476969 C46.3711867,22.6020289 48.2866048,21.8749141 48.4676031,20.9651425 C48.6486013,20.0518583 49.7451343,19.2316588 50.5640195,19.2316588 C51.3864192,19.2316588 51.2019065,17.3190308 51.4795543,16.1317612 C51.7519302,14.9480043 51.9346857,13.7624911 53.1225965,12.7596348 C54.3069927,11.7620474 52.8467059,11.3036489 52.2984395,11.393221 Z M58.809104,42.3342377 C58.137829,42.2745229 57.9550735,43.4846246 56.2557989,44.5243636 C54.5530097,45.5570773 56.2680997,50.2218522 57.9550735,49.9917749 C59.7176097,49.7494033 59.4751072,42.3957087 58.809104,42.3342377 Z" id="fr" fill="#000000"></path>
    </g>
</svg>