<?xml version="1.0" encoding="UTF-8"?>
<svg width="37px" height="50px" viewBox="0 0 37 50" version="1.1" xmlns="http://www.w3.org/2000/svg" xmlns:xlink="http://www.w3.org/1999/xlink">
    <!-- Generator: Sketch 51.2 (57519) - http://www.bohemiancoding.com/sketch -->
    <title>gb</title>
    <desc>Created with Sketch.</desc>
    <defs></defs>
    <g id="Page-1" stroke="none" stroke-width="1" fill="none" fill-rule="evenodd">
        <path d="M6.67611213,24.1245235 C5.30962413,22.8071044 3.55003684,24.8713208 2.10711287,24.8494937 C1.8731252,25.9018699 1.49406518,26.6580217 1.11344523,26.9293009 C0.540955396,27.3377787 -0.518228794,28.885941 0.297608218,29.051203 C1.11344523,29.2133469 2.4159766,30.5167343 2.5828878,29.5391938 C2.74199942,28.5600942 3.31604917,27.2535886 4.70125619,28.8843819 C5.03039884,29.2741509 5.45469649,29.6436518 5.90863257,29.9819713 C6.13326073,29.2414103 7.83825089,29.1151251 8.72428421,28.2248929 C9.80530725,27.1460124 8.18611257,25.5807003 6.67611213,24.1245235 Z M36.2037963,37.504512 C36.3145505,35.8846323 32.7501383,34.7527432 32.3695183,35.6133531 C31.9935781,36.4770811 31.1824209,36.372623 30.5865323,35.4028778 C29.9937635,34.4284555 31.1293837,33.5117189 30.5366149,33.4041427 C29.9391664,33.2965664 29.1857261,31.9464068 29.3510774,31.4085256 C29.5117489,30.8690854 28.4307259,27.4157325 26.5962625,26.9838685 C24.7586793,26.5535636 24.4903735,23.9623796 24.1659106,22.5607705 C23.8414477,21.1576022 22.6512304,21.9090768 21.7371186,20.7241792 C20.818327,19.5377225 19.2521695,20.1317304 18.4425721,20.1847389 C17.6345347,20.2393066 18.4425721,18.6708763 19.7373039,17.8102665 C21.0335956,16.9465385 22.5482758,12.3581784 22.5482758,11.44456 C22.5482758,10.5247053 16.8795345,10.5777139 15.7985115,11.1202722 C14.7174884,11.6581534 13.6395852,10.3111119 14.555257,9.93225647 C15.4740486,9.55496013 17.4192661,7.66691933 17.3100718,6.91076757 C17.2039974,6.15617488 18.6625206,5.45459077 17.8513633,4.75300666 C17.041766,4.05298163 16.9325717,5.67286138 16.2306087,6.21074254 C15.5302056,6.75018276 13.9624882,6.58959796 12.2886964,6.26531019 C10.6149046,5.94102242 9.9675387,8.31393579 10.0205759,9.33980767 C10.0767329,10.3656795 8.07691832,10.9581284 8.39826139,11.8218563 C8.72272429,12.6855843 8.0223212,13.3310417 7.48414955,12.8446101 C6.94597791,12.3597375 6.35164923,11.1732808 5.27062619,12.0354497 C4.18960315,12.9007368 6.51232076,14.0341849 7.91468687,14.1978879 C9.31861289,14.3584727 6.83834358,15.3843446 6.56691788,16.8904118 C6.29861202,18.4058335 8.39982131,17.7572579 8.51213539,18.8345793 C8.62132963,19.9134598 5.48745476,20.0756036 5.48745476,21.0999164 C5.48745476,22.1289065 7.27044081,20.6134848 8.07847824,20.1847389 C8.8896355,19.7513159 7.64950084,22.7182371 9.59315843,22.3970675 C11.5352561,22.0727797 10.9939646,19.4301463 11.6959276,19.5377225 C12.3994506,19.6421806 11.3730246,20.9377726 11.9673533,22.0727797 C12.5570023,23.2046688 10.5618674,24.9336838 10.6695017,25.7428442 C10.777136,26.5535636 14.6644512,26.5535636 15.9061458,25.2564125 C17.1494003,23.9608205 17.7390492,25.3639888 16.8779746,26.335293 C16.0137801,27.3050381 16.3897203,28.2248929 17.4723033,28.6021892 C18.5517664,28.9794855 18.9323863,29.0886208 18.445692,29.9476716 C17.9589976,30.8145178 18.3895349,32.4297203 18.1196692,33.2388806 C17.8513633,34.048041 14.5037797,33.9404647 14.3945854,33.4010245 C14.2869511,32.8615843 12.8814652,33.2388806 13.2620851,33.9919142 C13.6395852,34.7496251 12.0718678,35.5587854 12.1810621,36.2619286 C12.2918162,36.9650718 14.2869511,36.8013688 14.3399883,37.6650968 C14.3930255,38.5272658 12.8814652,39.5500195 10.8332931,40.1455864 C8.78044125,40.7380352 11.2622705,42.3594741 12.2340993,41.6563309 C13.2059281,40.9563059 12.9922193,42.1412035 14.3945854,42.1412035 C15.7985115,42.1412035 16.6658258,43.2762106 18.2273035,42.6837618 C19.793461,42.089754 19.7404238,42.6837618 18.5533263,43.5989393 C17.363109,44.5203531 15.5832428,43.5474898 14.5037797,44.1399386 C13.4243166,44.7323874 9.03158802,48.8499066 9.86146429,49.8617468 C10.3481586,50.4526366 10.9939646,48.9980188 12.5585622,48.3494433 C14.1262796,47.7024268 14.3945854,48.7797482 15.2603398,48.8873245 C16.1245343,48.9980188 16.1760116,47.108419 16.8795345,47.2690038 C17.5814975,47.4311477 18.2273035,46.676555 19.5220353,46.8932665 C20.8198869,47.109978 21.7371186,46.6235464 22.3844844,46.0841062 C23.0318503,45.5446659 24.7571194,47.1598685 25.3015307,46.7856903 C25.8381425,46.4052758 28.2154572,45.9734118 29.4041146,46.0264204 C30.5880922,46.0841062 33.6673699,44.6793789 34.4754074,43.9232271 C35.2865646,43.1686344 33.988713,43.0080496 32.9123697,43.1686344 C31.8313467,43.3323374 32.0466153,42.091313 33.1822355,41.0108735 C34.3147358,39.9351112 36.0977219,39.1228327 36.2037963,37.504512 Z M3.76062575,10.4186881 C5.2191489,10.3656795 6.89138079,7.88363087 6.19097769,7.17892861 C5.48745476,6.47890357 2.67492296,10.4561059 3.76062575,10.4186881 Z M19.2901215,4.07251311 C20.2057933,3.15889469 21.2852564,-0.349025868 19.8844502,0.0282704762 C18.4789643,0.407125896 18.8876627,4.47475466 19.2901215,4.07251311 Z" id="gb" fill="#000000"></path>
    </g>
</svg>