<?xml version="1.0" encoding="UTF-8"?>
<svg width="51px" height="50px" viewBox="0 0 51 50" version="1.1" xmlns="http://www.w3.org/2000/svg" xmlns:xlink="http://www.w3.org/1999/xlink">
    <!-- Generator: Sketch 51.2 (57519) - http://www.bohemiancoding.com/sketch -->
    <title>jp</title>
    <desc>Created with Sketch.</desc>
    <defs></defs>
    <g id="Page-1" stroke="none" stroke-width="1" fill="none" fill-rule="evenodd">
        <path d="M47.7463208,4.76680504 C47.1319842,3.97646384 46.0797423,5.20701113 44.7609494,5.46961246 C43.4408872,5.73094518 39.3131542,2.30951627 38.2583737,0.72756526 C37.2023239,-0.851848534 35.4456258,0.466232536 36.3277827,1.60544024 C37.2048625,2.74591654 36.1475434,3.09605165 36.1475434,4.68053986 C36.1475434,6.25868505 35.0953015,6.25868505 35.2730022,7.31289619 C35.446895,8.36710732 33.8666283,8.19077116 32.8105785,8.36710732 C31.7583366,8.54471209 32.8981595,9.59765462 31.6694863,10.1253945 C30.4382744,10.6505971 30.528394,11.5284721 31.1427307,11.8798758 C31.7583366,12.2312795 31.319162,13.3730245 31.1427307,14.1633657 C30.9662993,14.9537069 31.9322294,14.3397018 32.637955,13.5493606 C33.3398727,12.760288 34.0722533,13.9299423 34.2182218,13.1966883 C34.3946531,12.3213505 32.3739425,11.8811444 32.4602543,11.0007323 C32.5491046,10.1279317 33.8666283,11.2671394 34.9201394,10.7393995 C35.9749199,10.2141969 38.0819423,10.6531344 39.4007352,11.7923421 C40.7182589,12.9353556 41.0698524,12.4976867 41.3338648,11.0920718 C41.5953387,9.6877256 43.6173186,9.07245196 45.6380292,9.07245196 C47.6612784,9.07245196 47.8326326,8.10323739 47.218296,7.66683711 C46.6052286,7.22916823 50.5590688,4.68180847 50.4702185,3.97900105 C50.3813681,3.27492502 48.3631961,5.55714624 47.7463208,4.76680504 Z M31.5806359,16.795722 C30.7048254,17.2359281 30.0866809,19.9583554 31.0551496,20.7461594 C32.0210797,21.5365006 29.4736135,23.0309178 29.5611946,24.7004026 C29.6475063,26.3660816 27.9771199,26.3660816 27.7143768,27.5953602 C27.4516336,28.8271761 26.4857035,28.5633062 24.9904792,29.7037825 C23.500332,30.8429902 22.7070254,29.5261777 23.0586189,28.7383738 C23.4102124,27.9454953 20.7751651,29.1773112 20.8627462,31.1093974 C20.9528658,33.0402149 18.4041303,33.2152824 19.018467,34.0931574 C19.6340729,34.9735696 17.087876,35.4975036 17.1729184,34.7071624 C17.2617688,33.9193584 15.5901131,34.3608331 13.5732103,35.1486371 C11.5524997,35.9389783 10.3200185,34.2707622 9.1801956,35.4112385 C8.03656478,36.554252 6.10343521,38.5738719 4.60948019,38.8377418 C3.11806375,39.0978059 3.97737348,40.9081059 4.60948019,40.5922231 C5.66552996,40.0644833 7.33337779,40.5922231 7.86267197,39.8031506 C8.38815827,39.0115407 12.6923227,38.0474006 15.3286392,37.9598668 C17.9624172,37.8697958 16.3821504,39.1866083 16.5598511,40.5922231 C16.7362825,41.9965694 18.9321552,41.7339681 20.0745167,40.4184242 C21.215609,39.0978059 22.0964966,39.1853397 21.1267586,38.3937299 C20.1608285,37.6059259 21.3057286,36.9031185 22.0076463,37.9585982 C22.709564,39.0102721 24.9054367,39.0965373 25.7850551,37.6921911 C26.6646735,36.2878448 26.9261473,37.9585982 27.9796585,37.8685272 C29.0357083,37.7822621 29.6500449,35.1473685 29.7388953,36.1127773 C29.8277456,37.0794546 31.4968627,36.8168533 32.5516432,35.676377 C33.6051544,34.5320949 32.6392243,32.5137436 33.341142,31.4608011 C34.0430597,30.4065899 34.7449773,28.2093653 34.0430597,26.8925528 C33.341142,25.5757404 35.625865,24.699134 36.7669573,23.641117 C37.9093188,22.5894431 35.4494336,17.3209246 35.3618526,15.7389736 C35.2730022,14.1633657 32.458985,16.3580531 31.5806359,16.795722 Z M12.2531481,39.6268144 C11.9002853,40.5934918 10.8480434,40.1558229 9.44166946,40.4196928 C8.03529549,40.6822941 7.98706245,44.0301439 9.00249492,44.3688616 C9.79199366,44.6314629 10.4075996,44.6314629 10.6690735,43.5785204 C10.9318166,42.5255779 12.3394599,42.1741742 13.217809,42.6105744 C14.0974273,43.0520491 15.2385196,41.2924934 15.2385196,39.9756809 C15.2397889,38.6614056 12.6060109,38.6614056 12.2531481,39.6268144 Z M6.18847768,43.0520491 C6.18847768,42.1741742 4.2578867,42.3492417 4.17157494,41.5576319 C4.0814553,40.7672907 2.76520096,41.2087654 1.44767733,42.1729055 C0.130153702,43.1370457 -0.309020842,43.3133819 0.216465462,44.2787906 C0.744490347,45.245468 1.53398909,44.367593 1.8843133,43.4021842 C2.23590679,42.4355069 3.11806375,44.8077991 2.32602642,46.3884815 C1.53398909,47.9704325 2.42630038,50.1955665 3.46584937,49.9862466 C4.34419846,49.8137162 5.48909857,46.6523514 6.8066222,44.9828666 C8.12541512,43.3146505 6.18847768,43.9273869 6.18847768,43.0520491 Z" id="jp" fill="#000000"></path>
    </g>
</svg>