<?xml version="1.0" encoding="UTF-8"?>
<svg width="59px" height="50px" viewBox="0 0 59 50" version="1.1" xmlns="http://www.w3.org/2000/svg" xmlns:xlink="http://www.w3.org/1999/xlink">
    <!-- Generator: Sketch 51.2 (57519) - http://www.bohemiancoding.com/sketch -->
    <title>nl</title>
    <desc>Created with Sketch.</desc>
    <defs></defs>
    <g id="Page-1" stroke="none" stroke-width="1" fill="none" fill-rule="evenodd">
        <path d="M18.6019669,38.9530642 C21.1811802,36.381323 25.6887202,37.6580739 28.2618504,40.2358949 C30.8410636,42.813716 34.6977173,43.4460117 38.5604541,47.3005837 C39.5519912,48.2976654 40.622608,49.2035506 41.6628096,50 C42.0277926,47.2884241 42.1007892,41.8835117 43.29915,39.0928988 C44.5583414,36.1563716 42.0277926,32.3625973 44.144694,32.3625973 C46.2433462,32.3625973 52.1378217,32.3625973 52.1378217,28.5749027 C52.1378217,24.7932879 53.8289096,26.0517996 55.0881009,23.9421206 C56.3533753,21.8385214 51.3044438,17.6252432 50.4467338,16.3606518 C49.619439,15.1082198 54.2364739,14.6826362 57.6186498,9.64858949 C58.8352598,7.80642023 58.3242836,4.05520428 57.1928363,0 C56.6392787,1.4895428 55.5078314,2.57174125 53.6099198,1.42874514 C50.4467338,-0.468142023 45.6228751,0.589737354 39.2965031,1.84824903 C32.9822972,3.11284047 31.0843856,9.2108463 33.3898615,11.7400292 C35.7075036,14.2692121 27.2946454,15.5277237 26.6680913,12.1656128 C26.029371,8.77918288 19.7212482,11.1077335 20.1288125,15.5277237 C20.554626,19.947714 13.1758863,21.6318093 13.6016998,27.0914397 C14.0396794,32.5693093 6.87384652,37.6094358 2.23856241,40.3514105 C1.5085964,40.7830739 0.766464302,41.2268969 0,41.6646401 C2.33589121,42.7285992 4.19730451,43.4460117 5.08542981,43.4460117 C8.96033267,43.4460117 16.0349198,41.5308852 18.6019669,38.9530642 Z" id="nl" fill="#000000"></path>
    </g>
</svg>