<?xml version="1.0" encoding="UTF-8"?>
<svg width="100px" height="50px" viewBox="0 0 100 50" version="1.1" xmlns="http://www.w3.org/2000/svg" xmlns:xlink="http://www.w3.org/1999/xlink">
    <!-- Generator: Sketch 51.2 (57519) - http://www.bohemiancoding.com/sketch -->
    <title>sg</title>
    <desc>Created with Sketch.</desc>
    <defs></defs>
    <g id="Page-1" stroke="none" stroke-width="1" fill="none" fill-rule="evenodd">
        <path d="M43.5147044,0.444151958 C43.2040476,0.651256471 42.7725799,1.13450033 42.7725799,1.13450033 L42.945167,1.2553113 L43.2903412,0.858360984 C43.2903412,0.858360984 43.6355154,0.841102275 43.6527741,0.892878403 C43.6700328,0.944654531 43.6527741,1.37612227 43.6527741,1.37612227 L44.015207,1.60048549 L44.6537792,0.495928086 L46.0689934,1.2553113 L45.620267,2.08372935 L45.8791476,2.1700229 C45.8791476,2.1700229 46.2933566,1.4451571 46.4659437,1.46241581 C46.6385308,1.47967452 47.2080682,1.77307258 47.4324314,1.89388355 C47.6567947,2.01469452 48.1572972,2.34261 48.4506953,2.49793838 C48.7440934,2.65326677 49.2791134,3.03295837 49.4517004,3.15376934 C49.6242875,3.2745803 49.7968746,3.68878933 49.9349443,3.93041126 C50.073014,4.1720332 49.7968746,4.22380932 49.5897701,4.37913771 C49.3826656,4.53446609 49.1065263,4.43091384 48.8131282,4.46543126 C48.5197301,4.49994867 48.6923172,4.60350093 48.8649043,4.77608803 C49.0374914,4.94867512 49.2273372,4.77608803 49.5034766,4.79334674 C49.7796159,4.81060544 50.0212379,4.58624222 50.2628598,4.58624222 C50.5044817,4.58624222 50.5907753,4.79334674 50.8496559,5.03496867 C51.1085366,5.2765906 50.9704669,5.43191898 50.8841733,5.67354092 C50.7978798,5.91516285 50.5389991,5.94968027 50.3318946,6.20856091 C50.1247901,6.46744155 50.5389991,6.41566542 50.6770688,6.26033704 C50.8151385,6.10500865 50.8151385,6.13952607 51.1085366,6.03597381 C51.4019346,5.93242156 51.1948301,6.34663058 51.8506611,6.82987445 C52.506492,7.31311831 52.627303,7.88265572 52.5927856,8.14153637 C52.5582681,8.40041701 51.9887307,8.86640216 51.5917804,9.21157635 C51.1948301,9.55675054 51.2293475,9.59126796 51.1948301,9.90192473 C51.1603127,10.2125815 50.9186908,10.5577557 50.3491533,10.833895 C49.7796159,11.1100344 50.0039792,10.8684125 50.0384966,11.1100344 C50.073014,11.3516563 49.9349443,11.6623131 49.6760637,11.8521589 C49.417183,12.0420047 49.2618546,11.9384524 49.0202327,12.024746 C48.7786108,12.1110395 49.1583024,12.5770247 49.1583024,12.7668705 C49.1583024,12.9567163 48.1400385,13.2673731 47.8811579,13.3018905 C47.6222772,13.3364079 47.2598444,13.1293034 47.0009637,12.9912337 C46.7420831,12.853164 46.2933566,12.7668705 46.1552869,12.7668705 C46.0172173,12.7668705 45.499456,13.1293034 45.1715405,13.3709253 C44.843625,13.6125473 45.0162121,13.6125473 44.7573315,14.1993434 C44.4984508,14.7861395 44.7573315,14.4409653 44.9816947,14.4409653 C45.2060579,14.4409653 45.1542818,14.0267563 45.3441276,13.9059453 C45.5339734,13.7851344 45.8446302,13.8196518 46.0862521,13.6815821 C46.327874,13.5435124 46.3623915,13.629806 46.6730482,13.7851344 C46.983705,13.9404627 46.6040134,13.9404627 46.3106153,14.1303085 C46.0172173,14.3201543 46.034476,14.3546718 46.1552869,14.6308111 C46.2760979,14.9069505 46.4314263,14.7861395 46.3796502,14.9069505 C46.327874,15.0277614 46.2070631,14.9587266 46.1380282,15.3039008 C46.0689934,15.649075 46.7593418,15.5455227 47.2943618,15.4937466 C47.8293818,15.4419705 47.5877598,14.7171047 47.8638992,14.5962937 C48.1400385,14.4754827 48.053745,14.4237066 48.4506953,14.3546718 C48.8476456,14.2856369 49.7623572,13.4054427 49.8659095,13.2155969 C49.9694617,13.0257511 51.6262978,11.2998802 51.7125914,11.2308454 C51.7988849,11.1618105 52.2993875,10.1608054 52.4201985,10.0572531 C52.5410094,9.95370086 53.0587707,9.90192473 53.5420146,9.88466602 C54.0252584,9.86740731 54.4394675,10.2816163 54.4739849,10.5232383 C54.5085023,10.7648602 55.3196617,11.3343976 55.4922488,11.5242434 C55.6648358,11.7140892 56.1480797,11.7831241 56.2343733,11.7140892 C56.3206668,11.6450544 56.6485823,11.489726 56.9419803,11.5415021 C57.2353784,11.5932783 58.0983139,11.9902286 58.4089706,12.0420047 C58.7196274,12.0937808 59.0302842,12.2318505 59.099319,12.3699202 C59.1683539,12.5079899 58.3571945,13.4227015 58.3571945,13.4227015 C58.3571945,13.4227015 58.5297816,13.7160995 58.6678513,13.5780298 C58.805921,13.4399602 59.3064235,12.9567163 59.4617519,12.6805769 C59.6170803,12.4044376 59.7724087,11.9557112 59.9449958,11.6450544 C60.1175829,11.3343976 61.4119861,10.7821189 61.6708667,10.6958254 C61.9297474,10.6095318 62.4647674,10.5577557 62.7581654,10.5750144 C63.0515635,10.5922731 63.1033396,10.9374473 63.1723745,11.610537 C63.2414093,12.2836266 64.0698273,13.4227015 64.207897,13.6470647 C64.3459667,13.8714279 65.8302157,14.6653285 66.0028028,14.699846 C66.1753899,14.7343634 66.1236138,14.8551743 65.9510267,14.993244 C65.7784396,15.1313137 65.2261609,15.3556769 64.8464693,15.6835924 C64.4667777,16.0115079 65.3642305,15.6835924 65.5023002,15.5972988 C65.6403699,15.5110053 66.4170118,15.2003485 66.4170118,15.2003485 C66.9865492,14.8551743 67.7459325,15.9942492 67.7459325,15.9942492 C68.2119176,17.1851001 68.3499873,17.1160653 69.5408382,17.9790007 C70.7316892,18.8419362 71.8189879,18.9282298 71.991575,18.9627472 C72.1641621,18.9972646 72.6301472,18.9972646 73.3377543,18.9972646 C74.0453614,18.9972646 73.9935853,18.9109711 73.9935853,18.9109711 L74.3732769,19.152593 C74.3732769,19.152593 74.4077943,18.7556427 74.4768291,18.7038665 C74.545864,18.6520904 75.3397646,17.9962595 75.5468691,17.8754485 C75.7539736,17.7546375 75.7539736,17.4439808 75.788491,17.2886524 C75.8230085,17.133324 76.4270633,16.8571846 76.7032026,16.7363737 C76.979342,16.6155627 77.6006555,16.6328214 79.2747504,16.7363737 C80.9488452,16.8399259 81.673711,17.7891549 81.673711,17.7891549 C81.673711,17.7891549 82.8127858,20.2053743 83.0026316,20.5850659 C83.1924774,20.9647575 83.3823232,20.7231355 83.3995819,20.9820162 C83.4168406,21.2408968 82.8818206,20.9647575 82.7264922,21.3099317 C82.5711639,21.6551059 83.2615122,21.6723646 83.5203929,21.7413994 C83.7792735,21.8104342 84.0036367,21.6033297 84.0036367,21.6033297 C84.0036367,21.6033297 84.6076916,21.706882 84.5559154,21.8276929 C84.5041393,21.9485039 84.7285025,22.1556084 85.0046419,22.3454542 C85.2807812,22.5353 85.5224032,22.241902 85.6086967,22.1901258 C85.6949903,22.1383497 87.3863438,23.1048374 87.7832941,23.191131 C88.1802444,23.2774245 89.4228715,24.2956884 89.4401302,24.3992407 C89.4573889,24.5027929 89.2848018,24.5027929 89.1639909,24.4164994 C89.0431799,24.3302058 86.1782341,23.2601658 86.1782341,23.2601658 C86.1782341,23.2601658 84.4696219,26.9362709 84.3833283,27.1261167 C84.2970348,27.3159625 84.0726716,27.4885496 84.7285025,27.8855 C85.3843335,28.2824503 85.4361096,28.4032612 85.4361096,28.4032612 C85.5051445,29.4733012 84.5386567,30.5951173 84.3315522,30.9057741 C84.1244477,31.2164309 82.8818206,31.2509483 82.6574574,31.268207 C82.4330942,31.2854657 82.62294,31.6478986 82.62294,31.6478986 L83.6066864,31.7341922 L85.1427116,31.147396 L88.3355728,31.3372418 C88.3355728,31.3372418 88.4736425,32.6316451 88.4909012,32.9423018 C88.5081599,33.2529586 88.145727,33.166665 87.7832941,33.0631128 C87.4208612,32.9595605 87.5416722,32.4245405 87.3863438,32.3209883 C87.2310154,32.217436 86.4888909,32.2864709 86.4198561,32.3727644 C86.3508212,32.459058 86.3508212,33.2702173 86.0746819,33.2529586 C85.7985425,33.2356999 84.9010896,33.4428044 84.1762238,33.4255457 C83.451358,33.408287 82.1569548,34.3229986 82.0361439,34.357516 C81.9153329,34.3920334 79.6199245,33.7362025 79.6199245,33.7362025 C79.6199245,33.7362025 78.2564865,33.8570134 77.7214665,33.7534612 C77.1864465,33.6499089 76.4098046,33.1494063 76.030113,33.0803715 C75.6504214,33.0113367 74.1316549,33.3392521 73.9590678,33.3737696 C73.7864808,33.408287 70.507326,34.3229986 70.3002214,34.3229986 C70.0931169,34.3229986 63.914499,36.1524218 63.793688,36.2041979 C63.672877,36.255974 60.5317919,37.3087553 60.3246874,37.446825 C60.1175829,37.5848947 59.0302842,38.1199147 58.7368861,38.3270192 C58.4434881,38.5341237 58.0810552,38.6721934 57.9084681,38.5686411 C57.735881,38.4650888 57.3561894,38.9483327 57.2181197,39.051885 C57.08005,39.1554372 56.3724429,39.6041637 56.251632,39.7077159 C56.130821,39.8112682 55.6475771,39.9665966 55.4404726,40.1391837 C55.2333681,40.3117708 55.181592,40.6224275 55.0435223,40.6224275 C54.9054526,40.6224275 54.1460694,39.8975617 53.9217062,39.7249746 C53.697343,39.5523875 53.2486165,38.1716908 53.2486165,38.0853972 C53.2486165,37.9991037 53.0069946,37.3432727 52.9724772,37.1189095 C52.9379598,36.8945463 53.1968404,36.8945463 53.4384623,36.8427702 C53.6800843,36.790994 53.8181539,36.7047005 54.0597759,36.7047005 C54.3013978,36.7047005 54.7328655,36.8255114 55.0435223,36.8427702 C55.3541791,36.8600289 55.5267662,36.6356656 55.6820946,36.497596 C55.8374229,36.3595263 55.4922488,36.2904915 55.3369204,36.4630785 C55.181592,36.6356656 54.7846417,36.5838895 54.6293133,36.5148547 C54.4739849,36.4458198 54.1805868,36.0488695 54.1633281,35.7899889 C54.1460694,35.5311082 53.8871888,35.5828844 53.7318604,35.3930386 C53.576532,35.2031928 53.455721,35.1686753 53.162323,35.3240037 C52.8689249,35.4793321 53.4039449,35.6691779 53.4212036,35.841765 C53.4384623,36.0143521 53.0069946,36.3077502 52.6790791,36.7737353 C52.3511636,37.2397205 52.7826314,38.6031585 52.7135965,38.7067108 C52.6445617,38.810263 52.6100443,38.7757456 52.2821288,38.8620392 C51.9542133,38.9483327 50.5562579,38.8447805 50.2628598,38.9138153 C49.9694617,38.9828501 50.1593075,39.3107656 50.2973772,39.4488353 C50.4354469,39.586905 50.2801185,40.1219249 50.2801185,40.1219249 C50.2801185,40.1219249 50.1420488,39.7077159 49.8313921,40.4325817 C49.5207353,41.1574475 49.658805,41.4681043 49.7623572,41.3472933 C49.8659095,41.2264824 50.0212379,40.8122733 50.2456011,40.8640495 C50.4699643,40.9158256 50.8496559,40.7432385 51.1085366,40.5879101 C51.3674172,40.4325817 51.6953327,40.1737011 51.7298501,39.8630443 C51.7643675,39.5523875 51.7988849,39.5178701 52.0059894,39.466094 C52.213094,39.4143179 52.7135965,39.7422333 53.1105468,39.9665966 C53.5074972,40.1909598 53.9389649,40.536134 54.1460694,40.9848604 C54.3531739,41.4335869 53.4902385,41.8477959 53.1968404,42.1066765 C52.9034423,42.3655572 52.0232482,43.0041294 51.4537107,43.0386468 C50.8841733,43.0731643 50.7115862,42.5726617 50.6425514,42.2965223 C50.5735166,42.020383 49.8831682,42.0894178 49.7968746,42.2274875 C49.7105811,42.3655572 49.7623572,43.6944778 49.8659095,44.3503088 C49.9694617,45.0061397 49.8831682,44.8508113 49.537994,44.5401546 C49.1928198,44.2294978 48.882163,43.8152888 48.6577998,43.6427017 C48.4334366,43.4701146 48.3298843,43.6772191 48.3298843,43.7635126 C48.3298843,43.8498062 48.5024714,44.4366023 48.3644018,44.4020849 C48.2263321,44.3675675 47.8638992,43.9360997 46.9664463,43.4010797 C46.0689934,42.8660597 45.913665,42.9178359 45.5339734,43.4355972 C45.1542818,43.9533584 44.2395702,44.2640152 42.9279083,44.3503088 C41.6162464,44.4366023 41.8060922,43.8325475 41.6852812,43.6599604 C41.5644702,43.4873733 41.3055896,43.4701146 41.0639677,43.6944778 C40.8223457,43.918841 40.3218432,43.7635126 40.3218432,43.7635126 L39.8213406,44.4883784 L39.441649,44.1259455 L37.9919174,43.5736668 L37.8538477,43.504632 L37.9746587,42.8833185 L37.6812606,42.5036269 L37.3533451,42.8315423 L34.2295187,40.8813082 L33.9016032,41.3472933 C32.7797871,43.625443 32.5209065,43.1767165 32.5209065,43.1767165 C32.5209065,43.1767165 31.9686278,42.9005772 31.9168517,42.8142836 C31.8650755,42.7279901 31.6752297,42.313781 31.4853839,42.020383 C31.2955381,41.7269849 29.5696672,41.0021191 29.2072343,40.7950146 C28.8448014,40.5879101 29.0519059,40.3635469 29.0864233,40.2599946 C29.1209407,40.1564424 29.8112891,40.3290295 29.8112891,40.3290295 L30.052911,40.0183727 C30.052911,40.0183727 32.2275084,41.1401888 32.3828368,41.0884127 C32.5381652,41.0366365 32.7970458,39.9493379 32.7970458,39.9493379 L30.3463091,38.3787953 C30.3463091,38.3787953 30.6914833,37.6194121 30.6569659,37.5331185 C30.6224485,37.446825 30.2082394,37.0671334 29.9493588,36.8255114 C29.6904781,36.5838895 29.0691646,35.2031928 29.0691646,35.2031928 C29.0691646,35.2031928 28.7585078,35.2722276 28.7930253,35.3757799 C28.8275427,35.4793321 29.3625627,36.7737353 29.3970801,36.8600289 C29.4315975,36.9463224 29.2417517,37.0153573 29.2417517,37.0153573 C28.4996272,37.6194121 26.3940646,36.7564766 26.0661492,36.7737353 C25.7382337,36.790994 24.1676911,36.3422676 23.9088105,36.1006457 C23.6499298,35.8590237 23.580895,35.0478644 23.4946015,34.8235012 C23.4083079,34.5991379 23.3565318,34.1504115 23.3737905,33.9260483 C23.3910492,33.701685 24.1331737,32.5626102 24.2885021,32.4245405 C24.4438305,32.2864709 24.4956066,31.6133812 24.6164176,31.268207 C24.7372285,30.9230328 24.4265718,31.1646548 24.3402782,31.3027244 C24.2539847,31.4407941 23.9433279,32.1484012 23.7189647,32.4072818 C23.4946015,32.6661625 22.5626311,34.9270534 22.5971486,34.9788295 C22.631666,35.0306057 22.9078053,35.0651231 23.045875,35.2894863 C23.1839447,35.5138495 23.2874969,36.376785 23.1149099,36.3940437 C22.9423228,36.4113024 22.1139047,35.962576 22.0276112,35.7554715 C21.9413176,35.5483669 21.1128996,35.0478644 20.5951383,34.7372076 C20.077377,34.4265508 19.2489589,34.7544663 19.3007351,34.8580186 C19.3525112,34.9615708 19.0763718,36.0661282 18.9037847,36.1869392 C18.7311977,36.3077502 17.8337448,36.255974 17.8855209,36.0143521 C17.937297,35.7727302 17.6093815,35.4793321 17.4367944,35.3240037 C17.2642074,35.1686753 16.867257,34.6509141 16.3667545,34.771725 C15.8662519,34.892536 16.1423912,36.255974 16.038839,36.4113024 C15.9352867,36.5666308 14.0540874,36.6011482 13.9160177,36.5493721 C13.777948,36.497596 13.7606893,34.6681728 13.7434306,34.5301031 C13.7261719,34.3920334 13.363739,34.5473618 13.3119629,34.6163966 C13.2601868,34.6854315 13.5708435,36.7564766 13.5708435,36.9290637 C13.5708435,37.1016508 13.2601868,37.3432727 13.070341,37.1879443 C12.8804952,37.032616 12.0348184,36.911805 11.8449726,36.0661282 C11.6551268,35.2204515 10.7749326,34.1331528 10.8267087,35.1859341 C10.8784849,36.2387153 11.0855894,36.4630785 11.1891416,36.6184069 C11.2926939,36.7737353 11.8967487,37.3087553 11.9657836,37.446825 C12.0348184,37.5848947 10.4987933,38.6721934 10.3434649,38.7757456 C10.1881365,38.8792979 10.0155494,38.4305714 9.91199713,38.4133127 C9.80844488,38.396054 9.16987263,38.8965566 9.06632037,38.8792979 C8.96276811,38.8620392 7.63384749,37.3087553 7.68562362,37.2224618 C7.73739974,37.1361682 7.99628039,36.8945463 7.92724555,36.790994 C7.85821071,36.6874418 7.68562362,36.497596 7.51303652,36.3595263 C7.34044943,36.2214566 7.15060362,36.5493721 7.01253395,36.5148547 C6.87446427,36.4803373 6.68461847,36.1179044 6.7363946,36.0143521 C6.78817073,35.9107998 7.53029523,35.1514166 7.82369329,34.8752773 C8.11709135,34.5991379 8.3932307,34.1331528 8.16886748,34.0123418 C7.94450426,33.8915308 7.77191716,34.4265508 7.21963846,34.9788295 C6.66735976,35.5311082 6.63284234,35.2377102 6.47751396,35.1514166 C6.32218557,35.0651231 5.97701138,34.6163966 6.0115288,34.5128444 C6.04604622,34.4092921 7.21963846,33.3047347 7.15060362,33.1321476 C7.08156879,32.9595605 6.96075782,32.873267 6.78817073,32.752456 C6.61558363,32.6316451 6.5638075,32.9250431 6.33944428,33.166665 C6.11508106,33.408287 5.63183719,34.0123418 5.33843913,33.9950831 C5.04504107,33.9778244 4.19936431,33.0285954 4.14758818,32.994078 C4.09581205,32.9595605 3.52627464,33.8915308 3.52627464,33.8915308 L4.87245398,35.962576 C4.87245398,35.962576 5.92523525,38.1889495 6.21863331,38.3270192 C6.51203137,38.4650888 6.63284234,38.8792979 6.54654879,39.3798004 C6.46025525,39.880303 5.821683,40.1737011 5.821683,40.1737011 C5.821683,40.1737011 3.23287658,40.294512 2.19735402,40.294512 C1.16183145,40.294512 1.47248822,40.2427359 0.54051791,38.9655914 C-0.391452399,37.6884469 0.160826303,37.0843921 0.178085012,37.0153573 C0.195343722,36.9463224 2.76689143,29.9738038 2.83592627,29.8184754 C2.9049611,29.663147 3.28465271,28.3514851 3.38820497,28.1616393 C3.49175722,27.9717935 3.47449851,27.4712909 3.52627464,27.2814451 C3.57805077,27.0915993 3.69886174,27.1778929 3.83693141,27.0225645 C3.97500109,26.8672361 3.61256819,26.7464251 3.47449851,26.6083555 C3.33642884,26.4702858 3.42272239,26.159629 3.49175722,25.9870419 C3.56079206,25.8144548 3.80241399,25.5555742 3.88870754,25.4692806 C3.97500109,25.3829871 5.16585204,23.7951858 5.30392171,23.6571161 C5.44199139,23.5190465 5.4592501,23.2601658 5.52828494,23.0012852 C5.59731977,22.7424045 5.95975267,22.2936781 6.0115288,22.1728671 C6.06330493,22.0520562 6.33944428,21.7241407 6.42573783,21.5342949 C6.51203137,21.3444491 6.49477267,21.3271904 6.46025525,21.171862 C6.42573783,21.0165336 6.51203137,21.0855684 6.71913589,20.9992749 C6.9262404,20.9129813 6.80542944,20.8957226 6.82268814,20.7058768 C6.83994685,20.516031 6.87446427,20.6023246 6.99527524,20.7749117 C7.11608621,20.9474988 7.39222556,20.4815136 7.46126039,20.3607026 C7.53029523,20.2398917 7.90998684,19.3251801 8.03079781,19.152593 C8.15160877,18.9800059 8.18612619,18.5312794 8.32419587,18.2723988 C8.46226554,18.0135182 8.54855909,18.2378814 8.60033522,18.1170704 C8.65211134,17.9962595 8.72114618,17.8236724 8.9282507,17.5993091 C9.13535521,17.3749459 9.03180295,16.9607369 9.18713134,16.6673388 C9.34245972,16.3739408 8.96276811,16.063284 9.34245972,15.4937466 C9.72215133,14.9242092 9.41149456,14.1993434 9.56682294,14.0094976 C9.72215133,13.8196518 10.3779823,13.4744776 10.6886391,13.3536666 C10.9992958,13.2328556 10.8612262,13.1983382 10.8784849,13.3191492 C10.8957436,13.4399602 11.1201068,13.3191492 11.2064003,13.0257511 C11.2926939,12.7323531 11.0855894,12.6978357 11.0683307,12.5942834 C11.051072,12.4907311 11.3962461,12.4562137 11.4825397,12.2145918 C11.5688332,11.9729699 11.4825397,11.5932783 11.4825397,11.4206912 C11.4825397,11.2481041 11.4825397,11.075517 11.7414203,11.0409996 C12.000301,11.0064821 11.9485248,10.8511537 11.8104552,10.7130841 C11.6723855,10.5750144 11.7759378,10.3851686 11.7759378,10.1780641 C11.7759378,9.97095957 12.1383707,9.83288989 12.2246642,9.72933763 C12.3109577,9.62578538 12.5525797,9.22883506 12.7942016,9.15980022 C13.0358235,9.09076538 13.070341,9.14254151 13.2774455,9.1252828 C13.48455,9.10802409 13.6743958,8.86640216 13.8469829,8.72833249 C14.01957,8.59026281 13.9850526,8.71107378 14.1576397,8.76284991 C14.3302267,8.81462603 14.2784506,8.60752152 14.3820029,8.46945184 C14.4855551,8.33138217 14.55459,8.43493443 14.7789532,8.50396926 C15.0033164,8.5730041 14.9515403,7.98620798 15.1068687,7.88265572 C15.2621971,7.77910347 15.4347842,7.84813831 16.0215803,7.74458605 C16.6083764,7.64103379 17.8164861,6.41566542 18.3169886,5.96693898 C18.8174912,5.51821253 20.1118944,4.75882932 20.5951383,4.51720738 C21.0783821,4.27558545 21.9413176,4.27558545 22.1829395,4.20655061 C22.4245615,4.13751578 23.1321686,4.20655061 23.4946015,4.27558545 C23.8570344,4.34462029 23.8570344,4.39639642 23.995104,4.5517248 C24.1331737,4.70705319 24.4783479,5.06948609 24.5646414,5.22481447 C24.650935,5.38014286 25.0996614,5.62176479 25.4620943,5.89790414 C25.8245272,6.17404349 25.5311292,6.05323252 25.3585421,6.29485446 C25.185955,6.53647639 25.2722485,6.89890929 25.3585421,7.26134218 C25.4448356,7.62377508 25.7554924,7.81362089 25.8417859,7.95169056 C25.9280795,8.08976024 25.600164,8.96995442 25.5311292,9.1252828 C25.4620943,9.28061119 25.2895072,9.50497441 25.2722485,10.005477 C25.2549898,10.5059796 25.0133679,10.8684125 24.8407808,11.0064821 C24.6681937,11.1445518 23.9088105,11.6450544 23.6844473,12.0420047 C23.460084,12.438955 23.045875,12.438955 22.9595815,12.5770247 C22.8732879,12.7150944 22.217457,12.6115421 22.0448699,12.5425073 C21.8722828,12.4734724 21.4925912,12.4044376 21.3717802,12.2836266 C21.2509692,12.1628157 21.1301583,12.1110395 20.9920886,12.1973331 C20.8540189,12.2836266 20.9920886,12.4907311 20.9748299,12.9049402 C20.9575712,13.3191492 21.1301583,13.1465621 21.2509692,13.0602686 C21.3717802,12.973975 21.6996957,13.0084924 21.8205066,12.973975 C21.9413176,12.9394576 22.1139047,12.9912337 22.2864918,13.0602686 C22.4590789,13.1293034 22.3900441,13.4744776 22.4245615,13.4054427 C22.4590789,13.3364079 22.5798899,13.1293034 22.7352182,13.0602686 C22.8905466,12.9912337 22.9768402,13.1120447 23.0286163,13.3191492 C23.0803924,13.5262537 22.9595815,13.9922389 22.9078053,14.0612737 C22.8560292,14.1303085 22.6661834,14.5617763 22.5971486,14.6480698 C22.5281137,14.7343634 22.5453724,15.0450201 22.4073028,15.2348659 C22.2692331,15.4247117 22.3727853,15.3901943 22.5798899,15.4764879 C22.7869944,15.5627814 22.6661834,15.6145576 22.5971486,15.9079556 C22.5281137,16.2013537 22.3900441,16.1323188 22.1656808,16.2531298 C21.9413176,16.3739408 21.9240589,16.5465279 22.0276112,16.5637866 C22.1311634,16.5810453 22.5971486,16.598304 22.7007008,16.5292692 C22.8042531,16.4602343 23.0286163,16.1668363 23.0803924,16.063284 C23.1321686,15.9597317 23.1839447,15.6318163 23.1839447,15.4764879 C23.1839447,15.3211595 23.1149099,14.993244 23.2184621,14.7688808 C23.3220144,14.5445176 23.4255666,14.4409653 23.5636363,14.3374131 C23.701706,14.2338608 24.0123627,15.0967963 24.115915,15.2176072 C24.2194673,15.3384182 24.4093131,15.7698859 24.4610892,16.1150601 C24.5128653,16.4602343 24.8062634,16.6673388 24.8580395,16.5810453 C24.9098156,16.4947517 25.065144,16.5292692 25.185955,16.1323188 C25.3067659,15.7353685 24.7199698,15.3729356 24.6681937,15.3039008 C24.6164176,15.2348659 24.1676911,14.0612737 24.0641389,13.9059453 C23.9605866,13.7506169 23.8225169,13.1638208 23.8225169,12.9912337 C23.8225169,12.8186466 24.0641389,12.9394576 24.236726,12.853164 C24.4093131,12.7668705 24.3575369,12.6633182 24.2885021,12.5942834 C24.2194673,12.5252486 24.3747956,12.2836266 24.4438305,12.1282982 C24.5128653,11.9729699 25.0824027,11.7140892 25.2722485,11.610537 C25.4620943,11.5069847 25.8590447,11.4379499 25.7727511,11.2308454 C25.6864576,11.0237408 25.7554924,10.6958254 25.7554924,10.6958254 C25.7554924,10.6958254 26.0316317,10.5922731 26.3250298,10.3851686 C26.6184279,10.1780641 27.205224,9.1252828 27.3087762,8.98721313 C27.4123285,8.84914345 27.3605524,8.36589959 26.9981195,7.84813831 C26.6356866,7.33037702 26.5321343,6.62276994 26.5321343,6.50195897 C26.5321343,6.381148 26.5666517,5.77709317 26.5839104,5.48369511 C26.6011692,5.19029705 26.791015,5.24207318 26.8600498,5.25933189 C26.9290846,5.2765906 28.3442988,5.55272995 28.4133336,5.58724737 C28.4823685,5.62176479 29.2590104,5.70805834 29.5006323,5.79435188 C29.7422543,5.88064543 30.052911,5.86338672 30.1392046,5.81161059 C30.2254981,5.75983446 30.5361549,5.67354092 30.6397072,5.65628221 C30.7432594,5.6390235 31.1056923,5.86338672 31.1747272,5.88064543 C31.243762,5.89790414 31.8305581,5.79435188 31.7960407,5.62176479 C31.7615233,5.44917769 32.0031452,5.10400351 32.1584736,4.94867512 C32.313802,4.79334674 33.7117574,4.1720332 33.7117574,4.1720332 C33.7117574,4.1720332 35.0406781,3.34361514 35.0924542,3.2573216 C35.1442303,3.17102805 35.6619916,2.8948887 35.7137677,2.80859515 C35.7655439,2.7223016 36.3350813,2.32535129 36.473151,2.23905774 C36.6112206,2.15276419 37.180758,1.87662484 37.180758,1.87662484 C38.1299871,0.97917195 38.4061264,1.2553113 38.7685593,0.806584856 C39.1309922,0.35785841 40.6670173,0.06446035 40.6670173,0.06446035 L40.9431567,0.185271316 C42.6690276,-0.349748676 43.5147044,0.444151958 43.5147044,0.444151958 Z M54.8709352,8.36589959 C54.8709352,8.36589959 55.1643333,8.52122797 55.3196617,8.5730041 C55.47499,8.62478023 55.595801,8.26234733 55.595801,8.26234733 C55.595801,8.26234733 56.01001,8.52122797 56.2688907,8.69381507 C56.5277713,8.86640216 57.8049158,9.79837247 58.0983139,9.97095957 C58.3917119,10.1435467 59.5135281,10.7993776 59.7033739,10.9719647 C59.8932197,11.1445518 59.7033739,11.2826215 59.5998216,11.5415021 C59.4962693,11.8003828 59.340941,11.8521589 59.1510952,11.8866763 C58.9612493,11.9211937 58.4262294,11.7486066 58.1155726,11.7140892 C57.8049158,11.6795718 57.1490849,11.368915 56.9247216,11.3171389 C56.7003584,11.2653628 56.2343733,11.1963279 55.8891991,11.1272931 C55.5440249,11.0582583 55.181592,10.7476015 55.0435223,10.5577557 C54.9054526,10.3679099 54.7846417,10.0572531 54.232363,9.81563118 C53.6800843,9.57400925 53.6628256,9.34964603 53.5937907,9.19431764 C53.5247559,9.03898926 54.8709352,8.36589959 54.8709352,8.36589959 Z M63.6901357,11.4206912 C63.6901357,11.4206912 64.328708,12.024746 64.5185538,12.1800744 C64.7083996,12.3354028 65.3297131,12.7496118 65.4677828,12.8876815 C65.6058525,13.0257511 66.3307183,13.6815821 66.5033054,13.9059453 C66.6758925,14.1303085 66.9520318,14.2511195 66.9002557,14.4927414 C66.8484796,14.7343634 66.6931512,14.7171047 66.3652357,14.6135524 C66.0373202,14.5100001 66.2789421,14.4237066 66.1926486,14.3028956 C66.1063551,14.1820847 66.0545789,14.1993434 65.8647331,14.2166021 C65.6748873,14.2338608 65.3814893,14.1130498 65.1743847,13.9749802 C64.9672802,13.8369105 65.0880912,13.6125473 64.9155041,13.5952885 C64.742917,13.5780298 64.3459667,13.2328556 64.1388622,13.094786 C63.9317577,12.9567163 63.6038422,11.9902286 63.4830312,11.6795718 C63.3622203,11.368915 63.6901357,11.4206912 63.6901357,11.4206912 Z M69.7997189,13.4399602 C69.9895647,13.4399602 70.1276344,13.4399602 70.1966692,13.4917363 C70.265704,13.5435124 70.265704,13.6988408 70.3174802,13.7678756 C70.3692563,13.8369105 70.507326,14.0267563 70.6281369,14.0957911 C70.7489479,14.164826 70.6626543,14.1475672 70.8179827,14.2511195 C70.9733111,14.3546718 71.4047789,14.4409653 71.4738137,14.4927414 C71.5428485,14.5445176 71.5773659,14.5445176 71.6464008,14.6480698 C71.7154356,14.7516221 71.7326943,14.8033982 71.7326943,14.872433 C71.7326943,14.9414679 71.7154356,15.1658311 71.6636595,15.2348659 C71.6118834,15.3039008 71.4738137,15.4247117 71.335744,15.2521247 C71.1976743,15.0795376 71.2667092,15.0277614 70.9560524,14.8033982 C70.6453956,14.579035 70.6799131,14.6135524 70.5418434,14.5272589 C70.4037737,14.4409653 70.2311866,14.2511195 70.1794105,14.1820847 C70.1276344,14.1130498 70.1103756,14.1303085 70.0240821,13.9749802 C69.9377885,13.8196518 69.972306,13.8714279 69.9205298,13.7333582 C69.8687537,13.5952885 69.7997189,13.4399602 69.7997189,13.4399602 Z M67.5744499,9.14682167 C67.5744499,9.14682167 68.0142018,9.34674656 68.2115034,9.45333635 C68.4093572,9.55992614 68.6936427,9.72657624 68.9532137,9.80651858 C69.2127847,9.88646092 69.6126345,10.0264636 69.6126345,10.0264636 C69.6126345,10.0264636 69.9522859,10.0264636 70.192251,10.1064059 C70.4322161,10.1863483 70.4522362,10.3862731 70.5921007,10.5261377 C70.7318273,10.6660023 70.8864653,10.782257 70.8718299,10.8459071 C70.8569184,10.9095572 71.1914612,11.0857341 71.4912105,11.1057542 C71.7910978,11.1257743 71.850882,10.9458695 71.9908846,11.0258119 C72.1310253,11.1057542 72.1310253,11.2456188 72.2507318,11.285659 C72.3705762,11.3256992 72.7106418,11.285659 72.8505064,11.3056791 C72.9900949,11.3256992 73.3899446,11.3056791 73.5096511,11.2138628 C73.6293575,11.1220465 73.8098145,11.0858722 73.8548252,11.0067583 C73.899974,10.9276443 74.2096643,11.065714 74.4893935,11.1057542 C74.7689846,11.1457944 74.9689095,11.045832 75.1492285,10.8859473 C75.3296855,10.7260626 75.2489148,10.8859473 75.3218155,10.9377234 C75.3948544,10.9894996 75.6484884,11.0456939 75.9083355,11.1257743 C76.1681827,11.2058547 76.2482631,11.1459325 76.3482255,11.1658145 C76.4480499,11.1856966 76.6678568,11.265777 76.8478997,11.265777 C77.0278045,11.265777 77.1876891,11.1858346 77.3073955,11.1858346 C77.42724,11.1858346 77.7380349,11.2830357 77.7380349,11.2830357 L78.1177265,11.2312596 C78.1177265,11.2312596 78.3581058,11.099265 78.4265883,11.1058923 C78.4950709,11.1125196 78.4264503,11.3457193 78.586473,11.3457193 C78.7464958,11.3457193 78.7662397,11.2659151 78.911489,11.2312596 C79.0568764,11.1966041 79.3258361,11.265777 79.4260747,11.3657394 C79.5260372,11.4657019 79.7056658,11.725549 79.6708723,11.9388667 C79.6360787,12.1521843 79.6657637,12.1451427 79.6657637,12.3250475 C79.6657637,12.5049523 79.5658012,13.0446667 79.6657637,13.1845313 C79.7658642,13.3243958 79.8061805,13.2844937 79.7259621,13.3444159 C79.6457436,13.4043382 79.5460573,13.3043757 79.285934,13.3043757 C79.0259488,13.3043757 79.0862852,13.5443408 78.9462826,13.5642229 C78.806418,13.5841049 78.9261244,13.4642604 78.6463953,13.4642604 C78.3668042,13.4642604 78.2266634,13.6840673 78.0270147,13.6241451 C77.8272279,13.5642229 77.9269142,13.5041626 77.6870872,13.5041626 C77.4473982,13.5041626 77.4074961,13.5041626 77.4074961,13.5041626 C77.4074961,13.5041626 77.1876891,13.38418 77.0076463,13.38418 C76.8277415,13.38418 76.8277415,13.4841425 76.7542884,13.5091331 C76.6809734,13.5341237 76.1502336,13.8025311 76.1502336,13.8025311 C76.1502336,13.8025311 76.0682202,14.0437389 76.0811988,14.1131879 C76.0943154,14.1826369 76.0683583,14.2636838 75.9882779,14.3635082 C75.9080594,14.4633326 75.6484884,14.4634707 75.5884281,14.5233929 C75.5282297,14.5833151 75.4083852,14.7431998 75.4083852,14.7431998 C75.4083852,14.7431998 75.2485005,14.78324 75.1834697,14.699984 C75.1187151,14.616728 75.1834697,14.699846 75.1287941,14.5033728 C75.0739805,14.3068997 74.9288692,14.523531 74.8090248,14.5634331 C74.6891803,14.6033352 74.6292581,14.7233178 74.4893935,14.78324 C74.3495289,14.8431623 74.4094511,14.8433003 74.2896067,14.78324 C74.1697622,14.7231797 74.129722,14.6832776 74.0898198,14.7431998 C74.0499177,14.8031221 74.0898198,14.8631824 74.0098775,14.8830644 C73.9299351,14.9029464 73.7701885,14.9830269 73.670088,15.0429491 C73.5701256,15.1028713 73.3105546,15.1629316 73.1902959,15.1629316 C73.0700372,15.1629316 72.8905466,15.1629316 72.7504059,15.1829517 C72.6104033,15.2029718 72.4503805,15.1829517 72.3505561,15.1230295 C72.2508698,15.0631073 72.3878349,14.9761234 72.4106164,14.8431623 C72.4333979,14.7102012 72.2108296,14.6632575 72.1507693,14.6033352 C72.0909851,14.543413 71.9509825,14.2435257 71.9509825,14.2435257 C71.9509825,14.2435257 71.7311756,13.9838166 71.6712533,13.8638341 C71.6113311,13.7438515 71.4905201,13.6817202 71.4714665,13.7838917 C71.452551,13.8860633 71.3180711,13.8714279 71.1917373,13.9237563 C71.0654036,13.9760847 70.871968,13.843814 70.8119077,13.7638716 C70.7521235,13.6839293 70.7522616,13.5240446 70.6922013,13.4042001 C70.6320029,13.2843556 70.5722187,13.1842551 70.5121584,13.0644106 C70.4522362,12.9445662 70.3721557,12.8845059 70.2523113,12.8245836 C70.1324668,12.7646614 70.0924266,12.6448169 69.9725821,12.6047767 C69.8525996,12.5647365 69.8527376,12.6446788 69.7526371,12.684719 C69.6526747,12.7247592 69.5928905,12.6848571 69.5231653,12.5255247 C69.4535782,12.3661923 69.3128852,12.4248719 69.2329429,12.4248719 C69.1530005,12.4248719 68.8931534,12.2848693 68.8931534,12.2848693 C68.8931534,12.2848693 68.813211,12.1849068 68.7332687,12.1249846 C68.6533264,12.0650623 68.5334819,12.0650623 68.591195,12.0076253 C68.6490462,11.9501884 68.5049015,11.7487447 68.5049015,11.7487447 C68.5049015,11.7487447 68.3737353,11.8851575 68.2977969,11.9731079 C68.2219967,12.0610583 68.2335945,12.0250221 68.1936924,11.9450798 C68.1537903,11.8651374 68.0935919,11.8250972 68.0137876,11.8451173 C67.9339833,11.8651374 67.7339204,11.8052152 67.6247073,11.7487447 C67.5154942,11.6922742 67.4341711,11.6054284 67.4521202,11.4726054 C67.4702073,11.3397823 67.4541912,11.4053654 67.5540156,11.3454432 C67.65384,11.2855209 67.5139754,11.2055786 67.414151,11.2855209 C67.3143266,11.3654633 67.3741108,11.4055035 67.2941685,11.4654257 C67.2142261,11.525348 66.9146149,11.4253855 66.714552,11.4253855 C66.514489,11.4253855 66.5346472,11.2655008 66.5346472,11.2655008 L66.3648215,11.1619486 C66.3648215,11.1619486 66.1949958,11.0256738 66.1749757,10.8858092 C66.1552317,10.7459447 66.1151915,10.6860224 66.0152291,10.58606 C65.9151286,10.4860975 65.8351862,10.4261753 65.7780254,10.2817544 C65.7210026,10.1373335 65.7553819,10.0263255 65.7553819,10.0263255 C65.7553819,10.0263255 66.0552693,9.88632285 66.1749757,9.88632285 C66.2948202,9.88632285 66.4148027,9.86630275 66.5374086,9.76385505 C66.6601525,9.66140735 66.5947075,9.62647573 66.6148657,9.56655349 C66.6348858,9.50663125 66.694808,9.44670901 66.8348107,9.42668891 C66.9749514,9.4066688 66.9746752,9.50649318 67.0546176,9.54653338 C67.1345599,9.58657359 67.1591363,9.47059506 67.2346604,9.32672646 C67.3101846,9.18285786 67.354643,9.18686188 67.5744499,9.14682167 Z M85.6604728,10.0917705 C85.8675774,10.298875 85.7812838,10.4887208 85.7812838,10.4887208 C85.7812838,10.4887208 85.9366122,10.540497 86.0919406,10.6095318 C86.247269,10.6785667 86.2127515,10.6095318 86.3680799,10.6785667 C86.5234083,10.7476015 86.6097019,10.7648602 86.8168064,11.0237408 C87.0239109,11.2826215 86.9376173,11.1445518 86.9893935,11.2826215 C87.0411696,11.4206912 87.0066522,11.368915 87.0411696,11.5760195 C87.075687,11.7831241 87.0584283,11.6623131 87.0929457,12.1282982 C87.1274631,12.5942834 87.0411696,12.3008853 86.9893935,12.3871789 C86.9376173,12.4734724 86.7650302,12.4562137 86.5579257,12.4044376 C86.3508212,12.3526615 86.1954928,12.3871789 86.0229057,12.3871789 C85.8503186,12.3871789 85.7985425,12.3871789 85.5051445,12.3008853 C85.2117464,12.2145918 85.4188509,12.2663679 85.3325574,12.1800744 C85.2462638,12.0937808 85.1427116,11.9729699 85.0391593,11.7313479 C84.935607,11.489726 85.0046419,11.610537 85.0046419,11.4724673 C85.0046419,11.3343976 85.0046419,11.368915 85.056418,11.2135866 C85.1081941,11.0582583 85.1599703,10.9892234 85.2290051,10.9029299 C85.2980399,10.8166363 85.4878858,10.6613079 85.5569206,10.6267905 C85.6259554,10.5922731 85.6236082,10.0551821 85.6604728,10.0917705 Z M87.610707,9.69482021 C87.610707,9.69482021 87.9386225,9.76385505 88.1802444,9.76385505 C88.4218664,9.76385505 88.7497818,9.81563118 88.9396276,9.83288989 C89.1294734,9.8501486 89.4056128,9.6603028 89.5781999,9.57400925 C89.750787,9.4877157 89.9233741,9.34964603 89.9751502,9.28061119 C90.0269263,9.21157635 90.1995134,8.98721313 90.2512896,8.88366087 C90.3030657,8.78010861 90.3203244,8.48671055 90.6309812,8.40041701 C90.9416379,8.31412346 90.9071205,8.60752152 90.9934141,8.64203894 C91.0797076,8.67655636 91.2005186,8.64203894 91.6665037,8.65929765 C92.1324889,8.67655636 92.1324889,8.86640216 92.4086282,9.09076538 C92.6847676,9.31512861 92.719285,9.2978699 92.7883198,9.22883506 C92.8573547,9.15980022 92.7365437,9.02173055 92.6502502,8.91817829 C92.5639566,8.81462603 92.8228373,8.78010861 92.9263895,8.71107378 C93.0299418,8.64203894 93.0472005,8.52122797 93.1162353,8.43493443 C93.1852702,8.34864088 93.3578573,8.29686475 93.5304443,8.29686475 C93.7030314,8.29686475 94.082723,8.48671055 94.203534,8.59026281 C94.324345,8.69381507 94.7040366,8.71107378 95.3253501,8.86640216 C95.9466637,9.02173055 95.808594,9.05624797 96.1192508,9.22883506 C96.4299075,9.40142215 96.8095991,9.79837247 97.2065495,10.0572531 C97.6034998,10.3161338 98.3111069,10.8856712 98.5009527,11.0064821 C98.6907985,11.1272931 98.8461269,11.5932783 98.9324204,11.6968305 C99.0187139,11.8003828 99.1395249,12.0592634 99.1740423,12.2318505 C99.2085598,12.4044376 99.4501817,12.4044376 99.5019578,12.5770247 C99.5537339,12.7496118 99.3293707,12.8359053 99.1740423,13.0775273 C99.0187139,13.3191492 99.0187139,13.1638208 98.777092,13.1983382 C98.5354701,13.2328556 98.5009527,13.3364079 98.656281,13.3709253 C98.8116094,13.4054427 99.1567836,13.3018905 99.1050075,13.3364079 C99.0532314,13.3709253 99.0532314,13.7851344 99.0704901,14.0267563 C99.0877488,14.2683782 98.7080572,15.4247117 98.656281,15.942473 C98.6045049,16.4602343 98.483694,16.7018562 98.2765894,17.0297717 C98.0694849,17.3576872 97.7243107,17.3059111 97.3963953,17.2196175 C97.0684798,17.133324 96.3953901,17.3576872 95.929405,17.4784982 C95.4634198,17.5993091 94.4969321,17.961742 94.0654643,18.082553 C93.6339966,18.203364 93.5994792,18.2896575 93.1162353,19.0835581 C92.6329915,19.8774588 92.2187824,19.152593 92.1152302,19.1353343 C92.0116779,19.1180756 91.5111753,18.4277272 91.3731057,18.2896575 C91.235036,18.1515878 90.8380857,17.5130156 90.8035683,17.4439808 C90.7690508,17.3749459 90.2340308,16.6673388 90.164996,16.6155627 C90.0959612,16.5637866 90.0269263,16.3739408 89.9578915,16.2876472 C89.8888567,16.2013537 89.6644934,16.0287666 89.7162696,16.0115079 C89.7680457,15.9942492 89.9924089,15.8389208 89.9924089,15.8389208 L89.7162696,15.8044034 C89.7162696,15.8044034 89.4919063,15.8044034 89.336578,15.7698859 C89.1812496,15.7353685 89.1122147,15.6145576 89.1122147,15.5455227 C89.1122147,15.4764879 89.2330257,15.3556769 89.3020605,15.3039008 C89.3710954,15.2521247 89.336578,15.1485724 89.2502844,15.0622788 C89.1639909,14.9759853 89.0776973,14.8379156 89.0431799,14.7861395 C89.0086625,14.7343634 88.9914038,14.6308111 89.0086625,14.5617763 C89.0259212,14.4927414 88.9568863,14.4237066 88.7325231,14.4064479 C88.5081599,14.3891892 88.4391251,14.3546718 88.266538,14.3201543 C88.0939509,14.2856369 87.9731399,14.1993434 87.8868464,14.0957911 C87.8005528,13.9922389 87.610707,13.8714279 87.5244135,13.8369105 C87.4381199,13.8023931 87.3345677,13.6125473 87.3345677,13.5262537 C87.3345677,13.4399602 87.5589309,13.0775273 87.6452244,12.973975 C87.731518,12.8704228 87.8178115,12.7323531 87.8695877,12.6633182 C87.9213638,12.5942834 88.0939509,12.2491092 88.0939509,12.1973331 C88.0939509,12.145557 88.1112096,11.903935 88.0766922,11.8521589 C88.0421747,11.8003828 87.7660354,11.5760195 87.731518,11.489726 C87.6970006,11.4034324 87.6452244,10.833895 87.610707,10.6440492 C87.5761896,10.4542034 87.5416722,10.2643576 87.5244135,10.1953228 C87.5071548,10.126288 87.4726373,9.91918344 87.4726373,9.83288989 C87.4726373,9.74659634 87.489896,9.72933763 87.610707,9.69482021 Z M92.7440219,7.94112223 C92.7440219,7.94112223 92.8232749,7.85921328 92.955363,7.79778157 C93.0874512,7.73634985 93.2459571,8.00255394 93.2195394,8.16637184 C93.1931218,8.33018974 92.955363,8.28923526 92.8232749,8.26875803 C92.6911867,8.24828079 92.7176043,8.00255394 92.7440219,7.94112223 Z M46.5004611,44.1259455 C46.5004611,44.1259455 46.5867547,44.1777217 46.6557895,44.2467565 C46.7248244,44.3157913 46.8111179,44.4711197 46.8801527,44.6437068 C46.9491876,44.8162939 47.5877598,45.1442094 47.6913121,45.2305029 C47.7948643,45.3167965 47.7948643,45.5411597 47.7776056,45.6619707 C47.7603469,45.7827816 47.4842076,45.8000404 47.1908095,45.8000404 C46.8974115,45.8000404 46.9319289,45.8690752 46.7248244,45.8863339 C46.5177198,45.9035926 46.1207695,45.8863339 45.913665,45.8345578 C45.7065605,45.7827816 45.6547844,45.8172991 45.5339734,45.8172991 C45.4131624,45.8172991 44.6882966,45.4548662 44.4121573,45.3340552 C44.1360179,45.2132442 44.1015005,45.0406571 44.0669831,44.9198462 C44.0324657,44.7990352 44.2050528,44.7472591 44.3258637,44.6782242 C44.4466747,44.6091894 44.6882966,44.4366023 44.9299186,44.3330501 C45.1715405,44.2294978 45.2060579,44.1949804 45.2578341,44.160463 C45.3096102,44.1259455 45.6547844,44.1086868 45.7410779,44.1086868 C45.8273715,44.1086868 46.4141676,44.1259455 46.5004611,44.1259455 Z M40.5979825,44.8853288 C40.8376715,44.91957 41.3055896,45.0751746 41.5126941,45.0751746 C41.7197986,45.0751746 42.0304554,45.1442094 42.2203012,45.1269507 C42.410147,45.109692 42.4446644,45.0751746 42.6862864,45.0579158 C42.9279083,45.0406571 42.945167,45.0061397 42.9969431,45.0751746 C43.0487192,45.1442094 43.3766347,45.5411597 43.6355154,45.6101945 C43.894396,45.6792294 44.3603812,45.9208513 44.5847444,45.9898862 C44.8091076,46.058921 45.1025057,46.2487668 45.3268689,46.2142494 C45.5512321,46.179732 45.6893018,46.0761797 45.7755953,46.0761797 C45.8618889,46.0761797 45.8791476,46.1969907 46.0862521,46.2487668 C46.2933566,46.3005429 46.4141676,46.3523191 46.7075656,46.3350603 C47.0009637,46.3178016 47.0182224,46.179732 47.2253269,46.179732 C47.4324314,46.179732 47.7085708,46.3178016 47.7776056,46.3695778 C47.8466405,46.4213539 47.8121231,46.5594236 48.1055211,46.5594236 C48.3989192,46.5594236 48.9166805,46.47313 48.9857153,46.47313 C49.0547501,46.47313 49.2273372,46.5766823 49.2963721,46.6457171 C49.3654069,46.714752 49.3654069,46.8010455 49.2445959,46.9736326 C49.123785,47.1462197 48.7268347,47.6812397 48.6923172,47.7502745 C48.6577998,47.8193094 48.347143,48.2680358 48.2435908,48.3888468 C48.1400385,48.5096577 48.1572972,48.6822448 48.0019689,48.6649861 C47.8466405,48.6477274 47.7085708,48.6477274 47.7776056,48.4578816 C47.8466405,48.2680358 47.7776056,47.9918965 47.6913121,47.9746377 C47.6050185,47.957379 47.4496902,48.1472248 47.4324314,48.2162597 C47.4151727,48.2852945 47.3633966,48.5441752 47.3806553,48.61321 C47.397914,48.6822448 47.6913121,48.8375732 47.6740534,48.9583842 C47.6567947,49.0791951 47.518725,49.1827474 47.3633966,49.2000061 C47.2080682,49.2172648 46.9491876,49.0964539 46.7766005,49.1654887 C46.6040134,49.2345235 46.2588392,49.4071106 46.2243218,49.4588868 C46.1898044,49.5106629 46.0517347,49.7868022 45.9654411,49.7522848 C45.8791476,49.7177674 45.7410779,49.5451803 45.5339734,49.2862997 C45.3268689,49.027419 45.2060579,48.8893493 44.9989534,48.7857971 C44.7918489,48.6822448 44.5157096,48.6477274 44.3948986,48.492399 C44.2740876,48.3370706 44.2913463,48.199001 44.1360179,48.0954487 C43.9806896,47.9918965 43.9461721,48.0436726 43.6700328,47.8193094 C43.3938934,47.5949461 43.0314605,47.3878416 42.8933909,47.2325132 C42.7553212,47.0771849 42.4964405,46.7665281 42.2720773,46.6457171 C42.0477141,46.5249061 41.9096444,46.4558713 41.7025399,46.3695778 C41.4954354,46.2832842 41.0294502,46.0934384 40.9431567,46.0071449 C40.8568632,45.9208513 40.9431567,45.7655229 40.7705696,45.5929358 C40.5979825,45.4203487 40.4771715,45.2995378 40.4771715,45.1959855 C40.4771715,45.0924333 40.4771715,44.86807 40.5979825,44.8853288 Z M19.2778155,38.1199147 C20.1292912,38.1199147 21.8090469,38.6721934 22.0622666,38.6721934 C22.3154864,38.6721934 23.0977892,38.7872054 23.1898817,39.1323796 C23.2819742,39.4775538 23.3048937,39.9146824 23.351009,40.0988673 C23.3971243,40.2830523 23.9492649,40.536134 24.3405544,40.7432385 C24.7318438,40.950343 24.9618679,41.065355 25.2149496,41.1574475 C25.4680313,41.24954 26.2735298,42.1699124 26.2735298,42.1699124 C26.2735298,42.1699124 26.2735298,42.4461899 25.7672283,42.5612019 C25.2609268,42.6762139 25.0538223,42.9063761 24.8697754,43.0213881 C24.6857285,43.1364002 24.3405544,43.0444458 24.0873346,42.9063761 C23.8341148,42.7683064 22.9827772,42.4460518 22.8216499,42.4000746 C22.6605225,42.3540974 22.7756727,42.7452488 22.8216499,42.8142836 C22.8676271,42.8833185 22.9366619,43.3205851 23.0747316,43.3665623 C23.2128013,43.4125395 23.465883,43.7347941 23.465883,43.803829 C23.465883,43.8728638 23.5578374,43.918703 23.0286163,44.1719227 C22.4993952,44.4251425 22.3152103,44.7242014 22.1771406,44.8162939 C22.0390709,44.9083864 21.2337105,44.2870728 21.2337105,44.2870728 C21.2337105,44.2870728 20.5664198,43.9877378 20.0370606,43.6886789 C19.5077015,43.38962 19.0475153,43.205435 18.9325032,43.3435047 C18.8174912,43.4815744 18.7713759,43.5967245 18.8404108,43.7347941 C18.9094456,43.8728638 19.3467123,44.218038 19.4157471,44.2870728 C19.4847819,44.3561077 19.8299561,44.4712578 20.0601183,44.632247 C20.2902804,44.7932363 20.4514077,44.8851907 20.4973849,45.0003408 C20.5433621,45.1154909 20.4973849,45.3225954 20.4514077,45.3916303 C20.4054305,45.4606651 18.5414899,46.2431059 18.4493974,46.2890831 C18.357305,46.3350603 17.2988628,46.8413618 17.229828,46.8413618 C17.1607932,46.8413618 16.5394796,46.5421649 16.5394796,46.2660255 C16.5394796,45.9898862 16.3323751,44.7012819 16.2402826,44.4251425 C16.1481902,44.1490032 16.0562358,43.8499443 15.9410857,43.803829 C15.8259355,43.7577137 15.3428297,43.7347941 15.1817024,43.6427017 C15.0205751,43.5506092 14.7213781,43.2973894 14.5373313,43.1364002 C14.3532844,42.9754109 14.1461799,43.0673653 14.0540874,43.1594578 C13.9619949,43.2515503 13.2716465,44.1259455 13.2716465,44.1949804 C13.2716465,44.2640152 13.363739,44.5170969 13.4097162,44.5861318 C13.4556934,44.6551666 15.0205751,45.7829197 15.0665523,45.8748741 C15.1125295,45.9668285 15.4117265,46.5652225 15.4577037,47.0254087 C15.5036809,47.485595 15.2276796,47.6465842 15.08961,47.6926995 C14.9515403,47.7388147 12.3282165,48.8662917 12.2591816,48.8893493 C12.1901468,48.912407 11.0855894,48.8433721 11.0165545,48.7053025 C10.9475197,48.5672328 8.94550941,45.0003408 8.94550941,44.931306 C8.94550941,44.8622711 8.46226554,44.2870728 8.30113823,44.1259455 C8.14001092,43.9648182 7.8869292,43.7809094 7.93290641,43.6657593 C7.97888361,43.5506092 8.11695328,42.9294337 8.46212747,42.7683064 C8.80730166,42.6071791 10.6022074,41.1114703 11.0623937,40.835331 C11.5225799,40.5591916 12.0058238,39.8688432 12.1669511,39.7077159 C12.3280784,39.5465886 12.4200328,39.4314385 12.6961721,39.4085189 C12.9723115,39.3855994 13.1334388,39.4546342 13.3405433,39.3855994 C13.5476478,39.3165645 14.7672173,38.5570432 14.8823674,38.4420312 C14.9975175,38.3270192 15.1125295,38.1199147 15.2044839,38.1199147 C15.2964383,38.1199147 15.8027398,38.5571813 16.032902,38.4650888 C16.2630641,38.3729964 16.4701686,38.2579843 16.5392035,38.2579843 C16.6082383,38.2579843 16.6542155,38.6030204 16.5851807,38.7181706 C16.5161459,38.8333207 16.3090413,39.2704493 16.1019368,39.3625417 C15.8948323,39.4546342 15.7107854,39.7998084 15.6646702,39.9148204 C15.6185549,40.0298325 15.3654732,40.6051688 15.1814263,40.6742037 C14.9973794,40.7432385 13.9850526,41.4566445 13.9850526,41.4566445 C13.9850526,41.4566445 14.2611919,41.663749 14.3071691,41.7327839 C14.3531463,41.8018187 14.8594478,42.3079821 14.9284827,42.3079821 C14.9975175,42.3079821 15.7569007,41.4335869 15.918028,41.4335869 C16.0791553,41.4335869 16.1941674,41.8247383 16.3782142,41.7097262 C16.5622611,41.5947142 16.6774112,40.6053069 16.9074353,40.3520871 C17.1374594,40.0988673 18.0579699,39.523531 18.1270048,39.4085189 C18.1960396,39.2935069 18.3110516,39.2015525 18.4031441,38.9713903 C18.4952366,38.7412282 18.2420168,38.6260781 18.3110516,38.511066 C18.3800865,38.396054 19.2778155,38.1199147 19.2778155,38.1199147 Z" id="sg" fill="#000000" fill-rule="nonzero"></path>
    </g>
</svg>