<?xml version="1.0" encoding="UTF-8"?>
<svg width="95px" height="51px" viewBox="0 0 95 51" version="1.1" xmlns="http://www.w3.org/2000/svg" xmlns:xlink="http://www.w3.org/1999/xlink">
    <!-- Generator: Sketch 51.2 (57519) - http://www.bohemiancoding.com/sketch -->
    <title>us</title>
    <desc>Created with Sketch.</desc>
    <defs></defs>
    <g id="Page-1" stroke="none" stroke-width="1" fill="none" fill-rule="evenodd">
        <path d="M16.7471581,46.655337 C16.7590819,46.6420656 16.7711155,46.6284734 16.7832421,46.6145452 C17.023332,46.3382905 17.2155426,46.3262693 17.203515,46.4585017 C17.191256,46.5902718 17.4436048,46.6503774 17.3115323,46.7227354 C17.1794597,46.794631 16.9150834,46.794631 16.9273423,46.90259 C16.9391386,47.0107801 17.2393665,47.0584023 17.1313492,47.2264669 C17.023332,47.3949939 16.5308934,47.7311231 16.4231074,47.7311231 C16.3148588,47.7311231 16.3028312,47.611143 16.1349071,47.7311231 C16.0096207,47.8204916 15.8983424,47.6385047 15.8835628,47.469899 C15.8792953,47.4733036 15.8749575,47.4768163 15.8705469,47.4804408 C15.6663086,47.6487366 15.4264501,47.8408435 15.2703223,47.8526334 C15.1141946,47.8651169 15.1981566,48.104846 15.0540565,48.1409094 C14.9101876,48.1767416 14.1418077,48.5369131 14.0694106,48.7049777 C13.9974762,48.87258 14.0694106,48.9689802 13.7453588,49.0286235 C13.4213069,49.0889603 13.3734277,49.2327515 13.2649479,49.2207304 C13.1569306,49.2089404 12.9767476,49.1731082 12.8687303,49.2688149 C12.7609443,49.3654462 12.5206232,49.5210274 12.4246335,49.4130684 C12.3286438,49.3051094 12.2564781,49.2810672 12.2324229,49.4246272 C12.2083676,49.5691119 11.6560223,49.8451355 11.5840878,49.7730087 C11.4776897,49.6664368 11.8843158,49.4606906 11.9803054,49.184667 C12.0762951,48.9088745 12.7489167,49.1971504 12.8208511,49.1009814 C12.8927855,49.0052747 13.4213069,48.416933 13.7333312,48.3806384 C14.0455867,48.3448062 14.2014832,47.8524023 14.3936938,47.8043178 C14.5856731,47.7564644 14.3206029,47.2721516 14.5856731,46.9404147 C14.7778838,46.7006857 14.9460392,46.5203687 14.5736455,46.6884334 C14.2014832,46.8562668 13.9974762,46.8086447 13.9852173,46.6283277 C13.973421,46.4487043 13.7573864,46.6884334 13.7573864,46.9048137 C13.7573864,47.1205005 13.6731931,47.0728783 13.4210756,46.7966235 C13.1687269,46.5205999 12.7126025,46.5686844 12.6765196,46.7367491 C12.6404368,46.9050449 12.0640362,46.9528982 12.0880914,46.8088758 C12.1119154,46.6646223 12.0041294,46.3647876 12.1362019,46.2686186 C12.2682744,46.1724495 12.0640362,45.7889293 11.919936,45.6569281 C11.7758359,45.5246956 11.8958808,45.872846 11.6437633,45.8848672 C11.3916459,45.8966571 11.1756113,46.1368485 11.0074559,45.980805 C10.8395319,45.8247615 10.5753868,45.3926944 10.3350657,45.3446099 C10.0949759,45.2967566 10.5992107,44.9966907 10.3593522,44.8286261 C10.1190311,44.6605614 10.1671416,44.9243327 9.86691366,44.5045179 C9.56691704,44.0847031 10.0230414,44.4566646 10.1310587,44.0243663 C10.2393073,43.5922992 10.6834041,43.8084484 10.6713765,43.6281314 C10.6595801,43.4482769 10.599442,43.0765466 10.8876423,43.0765466 C11.1758426,43.0765466 11.343998,43.448508 11.5718289,43.2681911 C11.8001224,43.0885677 11.7159291,42.8125441 11.8600292,42.824334 C12.0041294,42.8363552 12.2562468,42.9683564 12.5203919,42.7764807 C12.7845369,42.5841426 12.6043539,42.2124124 12.4602538,42.0561377 C12.3161536,41.9000942 12.8925542,41.9366199 12.6163815,41.6844074 C12.3402089,41.4324261 11.7998911,41.864262 11.6555597,42.0203055 C11.5116908,42.1765801 11.3435354,41.960431 11.1635837,41.960431 C10.9834007,41.960431 10.3107791,42.1162433 10.0107825,41.960431 C9.71032329,41.8043875 9.79451664,41.6240706 9.60230601,41.5641961 C9.41032667,41.5040905 9.93861679,41.3485093 9.69852697,41.3004248 C9.45843716,41.2521091 8.8459537,41.1441501 8.91811942,40.9881066 C8.99005385,40.8322943 9.39829905,40.7241042 9.65064779,40.5680607 C9.90276523,40.4120172 10.0709206,40.7005243 10.1187998,40.5199762 C10.166679,40.3403528 10.0225788,40.4240383 10.4187964,40.1960992 C10.8152453,39.9681601 11.1034456,40.0520768 11.091418,40.1720569 C11.0796217,40.2918059 10.8871797,40.5680607 11.091418,40.5442496 C11.2954249,40.5199762 11.6916425,40.4360594 11.7878635,40.5680607 C11.8840845,40.7005243 12.0038981,40.6156828 12.2442192,40.4360594 C12.484309,40.2562048 12.9526923,40.4240383 12.8925542,40.2562048 C12.8326474,40.0881402 12.5201606,40.2321626 12.3161536,40.1362247 C12.1119154,40.0400557 12.3762917,39.7041576 12.1362019,39.6683254 C11.8961121,39.632262 11.2836286,39.8003267 11.2234905,39.644052 C11.163815,39.4880085 10.8275042,38.8400234 10.3350657,38.7082534 C9.84285842,38.5764833 9.63885147,38.4565032 9.73484114,38.3242708 C9.8310621,38.1922695 9.69898957,37.9883727 9.87894129,37.9883727 C10.0591243,37.9883727 10.9237252,38.0602683 11.2480084,37.7123491 C11.5718289,37.3644299 11.3557943,37.2564709 11.4758393,37.1360284 C11.5961155,37.0158172 11.9921017,36.5839812 12.1121467,36.6080235 C12.2324229,36.6318346 12.7366577,36.6438557 12.9048131,36.4640011 C13.0729685,36.2841465 13.1328753,36.6801503 13.3010307,36.5120856 C13.4691861,36.3442522 13.1930134,36.3562733 13.1807545,36.2242721 C13.1689582,36.0922708 13.4571585,36.0441863 13.6852207,36.0682286 C13.9135142,36.0920397 14.2856765,36.1160819 14.537794,35.8881428 C14.7899114,35.6602037 14.982122,35.5041602 15.1021669,35.5402236 C15.2222118,35.5760558 15.546495,35.6361615 15.5344674,35.7441205 C15.5224398,35.8520794 15.2219805,35.8881428 15.3182015,35.9843118 C15.4144225,36.0800185 15.6545123,36.0559763 15.7384743,35.9119539 C15.8224364,35.7681627 16.0264433,35.7318681 16.014647,35.8400583 C16.0026194,35.9480173 16.0627575,36.0800185 16.2787921,36.0559763 C16.4948267,36.0321652 17.0950512,35.8641006 17.2153274,36.0441863 C17.3353723,36.2242721 17.1672169,36.3442522 17.3834828,36.3202099 C17.5992861,36.2961677 17.5636658,36.5358967 17.7315899,36.4760222 C17.899514,36.4159166 18.6077558,36.2598731 19.112222,36.3798532 C19.6166882,36.5000645 19.8688056,36.7763193 20.2650232,36.7159825 C20.6610095,36.656108 20.9253858,36.7402559 21.1173652,36.8361938 C21.3095758,36.9321316 21.8619212,36.860236 22.1380938,36.8001304 C22.4142665,36.7404871 22.9307603,36.9802161 23.2788674,37.1124485 C23.3450193,37.1374155 23.4308318,37.1535978 23.5270527,37.1635383 L23.5270527,45.4581171 C23.5270527,45.4581171 23.7349918,45.6130047 23.8150217,45.5168357 C23.8950517,45.4208978 24.0391518,45.5489691 24.3113924,45.4208978 C24.5834017,45.2928266 24.6793913,45.5651514 24.6793913,45.6925291 C24.6793913,45.8208315 25.0635813,46.0288895 25.2236412,46.2367163 C25.3839324,46.4445432 25.463731,46.6206989 25.6399819,46.5085788 C25.8162328,46.396921 26.1363526,46.332423 26.1363526,46.1241339 C26.1363526,45.9167694 26.872813,45.884636 26.872813,46.1567296 C26.872813,46.4288232 27.6252332,46.7487702 28.041574,47.4843708 C28.4579147,48.2208961 28.3938445,48.3806384 29.0021645,48.6205986 C29.6107159,48.8610212 29.5947562,48.9888613 29.5144949,49.1971504 C29.434465,49.4045149 29.8827252,49.5170974 29.6276008,49.6932532 C29.5292981,49.7607564 29.3912118,49.859006 29.2582141,49.9542504 C29.2559011,49.9355252 29.2554385,49.9154129 29.2593706,49.8936824 C29.2834258,49.74966 29.0313084,49.9893891 29.0313084,49.857619 C29.0313084,49.7256178 29.127298,49.4976787 28.9831979,49.4734052 C28.8390977,49.4495941 28.8270701,49.74966 28.7310805,49.6056376 C28.6348595,49.4613841 28.4549078,49.4015096 28.4549078,49.5094686 C28.4549078,49.6176588 28.4354785,49.8876718 28.3346316,49.8099968 C28.2268456,49.7256178 28.0704865,49.6056376 28.0344036,49.7020378 C27.9987834,49.7977445 28.0584589,50.0134313 27.8542206,49.8816613 C27.6502137,49.74966 27.9143587,49.5217209 27.8424243,49.3531939 C27.7700273,49.1853605 27.6138995,48.9456314 27.7700273,48.9336103 C27.9261551,48.9215892 28.1063381,49.305803 28.2381793,49.1617806 C28.3704831,49.0172959 28.5025557,49.029317 28.5145833,48.8855258 C28.5266109,48.7415034 28.2504382,48.3337098 28.0943105,48.3454997 C27.9381827,48.3575208 27.9141274,48.6333133 28.0825141,48.6455656 C28.2504382,48.6575867 28.4063347,48.8617147 28.2985487,48.9095681 C28.1903001,48.9578838 27.9020998,48.7415034 27.842193,48.5496277 C27.7820549,48.3575208 27.5539927,48.8256513 27.4940859,48.6212921 C27.4337165,48.4176265 27.374041,48.8256513 27.27782,48.8136302 C27.1815991,48.8018403 27.1455162,48.3219198 27.2176819,48.249793 C27.2896164,48.1776663 27.5176786,48.2380031 27.5176786,48.1055395 C27.5176786,47.9740006 27.769796,47.9853282 27.6978616,47.7333469 C27.6256958,47.4813655 27.4337165,47.2171319 27.3738097,47.3613854 C27.3134403,47.5054078 27.5537614,47.7814314 27.385606,47.8778316 C27.2174506,47.9740006 27.1334886,48.1416029 27.0613229,48.0576862 C26.9893884,47.9737694 27.1334886,47.7213257 26.9893884,47.6734724 C26.8452883,47.6253879 26.7971778,47.8658105 26.9054264,48.0341063 C27.0134437,48.2019397 27.0492952,48.5739012 26.9535369,48.6215233 C26.8573159,48.6700702 26.8661053,48.3591391 26.7014194,48.3098987 C26.5811432,48.2738353 26.7252434,47.9740006 26.533264,47.937706 C26.3410534,47.9018738 26.0769084,47.5775345 26.088936,47.4094699 C26.1007323,47.2414053 26.4971812,47.1933208 26.4610983,47.3135321 C26.4250155,47.433281 26.7851502,47.6135979 26.8573159,47.3974488 C26.9294816,47.1815308 26.9294816,46.8574227 26.8214643,46.6893581 C26.7132158,46.5212934 26.4971812,46.2813332 26.6051985,46.6412736 C26.7132158,47.0012139 26.7971778,47.3135321 26.557088,47.0971517 C26.3172295,46.8812338 26.4250155,47.085593 26.1250188,46.8692127 C25.8247909,46.6535259 26.1969533,47.3255532 25.812532,47.1334463 C25.4285733,46.9413394 25.3325837,46.773506 25.1764559,46.6172313 C25.0205594,46.4616502 24.6842486,46.3654811 24.5401485,46.3053755 C24.3960483,46.2452698 24.1677548,46.2332487 24.2760034,46.1134998 C24.3837894,45.9932885 24.5762314,45.9331828 24.3837894,45.7776017 C24.1920414,45.6215582 24.0958204,46.0656464 23.7236581,45.9932885 C23.3514957,45.9211617 23.4114025,45.6576216 23.2432471,45.6694115 C23.0750918,45.6812015 22.4267567,45.7653494 22.066622,45.7052438 C21.706256,45.6449069 21.4541385,45.6093059 21.4541385,45.5131369 C21.4541385,45.417199 21.4541385,45.285429 21.3343249,45.4051779 C21.2140487,45.5253892 21.1541419,45.5852636 21.0100418,45.4534936 C20.8657103,45.3212612 20.7336378,45.4051779 20.57751,45.5374103 C20.4216136,45.6691804 20.313365,45.3931568 20.5176032,45.3450722 C20.7218415,45.2972189 20.950135,45.3212612 20.7579243,45.1649865 C20.5657137,45.008943 20.4456688,45.2972189 20.3376515,45.0690486 C20.2296342,44.8406472 20.0614788,45.008943 19.9414339,44.9247951 C19.821389,44.8406472 19.6893165,44.7689828 19.641206,44.9492997 C19.5930955,45.1289231 19.3772922,44.9851319 19.4612543,45.2128398 C19.5454476,45.4407789 19.8336479,45.4770735 19.7015754,45.5371791 C19.5692716,45.5968224 19.7975651,45.7771394 19.6893165,45.8127404 C19.5812992,45.8488038 19.2930989,45.6571592 18.9089089,45.8488038 C18.5242564,46.0406795 18.1164738,46.4369144 17.8400698,46.4369144 C17.5641284,46.4369144 17.419797,46.3169343 17.6240352,46.2568286 C17.8285048,46.1969542 18.0325117,46.0406795 17.8162458,46.0168684 C17.59998,45.992595 17.6120076,45.8485726 17.780163,45.6208647 C17.9483184,45.3931568 17.780163,45.3330511 17.9964289,45.1289231 C18.2124634,44.9247951 18.3204807,44.912774 18.5605705,45.0209641 C18.8006603,45.1289231 18.8725948,44.8288572 18.5485429,44.8170673 C18.2242597,44.8045838 18.3924151,44.588897 18.2242597,44.685066 C18.0563357,44.7807727 17.9122355,44.9966907 17.7561077,45.0087118 C17.59998,45.0207329 17.6358315,45.1645241 17.4799351,45.3328199 C17.3238073,45.5006534 17.1315967,45.5367168 17.119569,45.7285925 C17.1075414,45.9204682 16.8912755,46.0647217 16.7594343,46.0524694 C16.6271305,46.0404483 16.2790234,46.3525353 16.3151062,46.4366832 C16.3511891,46.5205999 16.7471754,46.5205999 16.7471754,46.6526012 C16.7471754,46.6535137 16.7471696,46.6544256 16.7471581,46.655337 Z M16.4849275,46.9260173 C16.4803198,46.9268947 16.4756774,46.9276876 16.4710027,46.9283936 C16.4181748,46.9366851 16.3969658,46.9778753 16.3859784,47.0310711 C16.4137399,46.9987092 16.4471401,46.9640751 16.4849275,46.9260173 Z M8.97926984,50.6776226 C9.26747014,50.5578736 9.38751505,50.4138513 9.26747014,50.2698289 C9.14719393,50.1258065 8.75745276,50.770324 8.97926984,50.6776226 Z M11.2305992,49.4884296 C11.4949755,49.5848298 11.1346095,49.705041 10.9423989,49.705041 C10.7504196,49.705041 10.6784851,49.8728745 10.5103297,49.8488322 C10.2711651,49.8148494 10.9664541,49.3927229 11.2305992,49.4884296 Z M9.39749405,44.9103785 C9.42131799,45.1024854 9.64961149,44.8144407 9.78168402,44.9341896 C9.91375655,45.0541697 9.85384974,45.2460454 9.67366673,45.3063823 C9.46457117,45.3759661 8.97722122,45.2580666 8.91708312,45.0784432 C8.85717632,44.8983574 9.37343881,44.7182717 9.39749405,44.9103785 Z M6.76953579,33.2195666 C5.89258766,33.3215294 6.37632792,35.5127163 6.8472315,35.1521327 C7.18233649,34.8948624 7.80119973,34.8435434 7.98226453,34.5072688 C8.22278343,34.0609284 7.64648392,33.1169286 6.76953579,33.2195666 Z M5.77506623,31.671892 C5.25822084,31.7481952 5.59265021,32.689494 5.92910643,32.4437029 C6.49662294,32.0324756 6.2905604,31.5949134 5.77506623,31.671892 Z M0.185778453,29.7401761 C0.649925886,30.2297325 0.985030874,30.1007597 1.11474893,29.6625223 C1.24311576,29.2242849 -0.312149724,29.2155067 0.185778453,29.7401761 Z M3.24490231,31.2272743 C3.58068291,31.7431654 3.94146127,31.8478292 4.22454391,31.3839323 C4.50897778,30.9180097 2.85372129,30.6263016 3.24490231,31.2272743 Z M93.4655577,5.2558576 C93.4196159,4.78858445 92.0163637,5.16132257 91.3616929,4.64813241 C90.7070221,4.13224124 89.5848257,6.47130799 89.351063,7.45244655 C89.1166246,8.43358511 87.3870505,9.50858345 87.3870505,9.50858345 C87.3870505,9.50858345 82.3827709,9.55517572 81.9618629,9.55517572 C81.6699972,9.55517572 80.5201007,10.546443 79.8451614,11.1514672 C79.8661055,11.177802 79.8863739,11.204812 79.9046155,11.2365488 C80.4106511,12.149487 78.5716273,12.7092695 76.8184067,12.7794955 C76.279266,12.8004282 75.8732214,12.8557988 75.5604117,12.89969 C75.6218927,13.1144196 75.6691857,13.3507572 75.6502685,13.5269975 C75.6367562,13.639089 75.4489353,13.7775153 75.1813918,13.9199931 C74.9131727,14.4635695 72.7613392,15.5122331 71.5580691,16.1462931 C70.2250809,16.8472028 68.4015963,16.4967479 68.4015963,15.4447081 C68.4015963,14.3940188 69.3839404,14.6033463 69.5940566,15.0942532 C69.6731035,15.277246 69.9102444,15.1442217 70.2304858,14.9139614 C69.8974077,14.5898413 69.9028126,14.0719244 69.9744278,13.674202 C69.5724369,13.4979617 70.1987319,11.9293555 69.3839404,11.6592554 C68.5421242,11.377676 67.5597801,12.851072 67.6996324,11.9381337 C67.8401603,11.0265459 69.1028846,10.2560854 68.3313323,9.06426881 C67.5597801,7.87245218 66.1572036,7.87245218 65.8761478,8.78336472 C65.5957676,9.69562776 64.6134236,9.27494688 64.2634551,9.9758566 C63.9128109,10.6767663 63.5614912,12.2190378 63.842547,13.3419789 C64.1222516,14.4628943 63.772283,15.023352 62.7203506,15.6547109 C61.6677426,16.2853946 61.1171165,14.6897783 61.5272147,12.6403939 C61.8082705,11.2365488 62.5798227,9.90630583 61.8778589,9.90630583 C61.175895,9.90630583 62.789939,8.22290704 64.2627795,7.87245218 C65.7356199,7.52064682 67.5597801,7.66244936 67.5597801,7.24109323 C67.5597801,7.15533645 67.626666,7.09929069 67.7381425,7.06012617 C67.4381695,6.8224381 67.1044157,6.60028078 66.8368722,6.43416922 C66.809172,6.52330225 66.7524203,6.60770853 66.6477,6.67928505 C66.0700493,7.08173418 66.226792,6.04725085 65.1748596,6.04725085 C64.1215759,6.04725085 63.0703192,7.02838941 62.228503,6.60973428 C61.3866868,6.18837815 61.8075949,5.62792047 61.0360427,5.62792047 C60.2638149,5.62792047 61.5974787,4.15519975 60.4746067,4.7865587 C59.3524104,5.41791765 57.6687781,6.96018914 56.8979015,6.25927942 C56.1256737,5.5583697 55.4243854,6.46995749 54.8629494,5.90814931 C54.3015134,5.34634113 56.8262863,3.80542014 58.0194222,3.87497091 C58.3133147,3.89117691 58.5808582,3.76287937 58.8315113,3.56097956 C58.2045407,3.33139449 56.9107382,2.82630733 56.5695526,3.24361196 C56.1486446,3.75747737 55.5412668,3.42863052 55.2135935,3.00930013 C54.8865959,2.58861925 54.4656879,3.14907693 53.9042519,2.49610997 C53.3428159,1.83976676 52.7820555,2.30839041 52.4543823,2.44749196 C52.1273847,2.58861925 51.7064766,2.21385538 51.0977476,1.98156931 C50.4903698,1.74658223 50.9578953,1.13953229 50.4430768,0.765443671 C49.9289338,0.391355052 49.8992068,1.4731059 49.8992068,1.4731059 L6.30718254,1.70809297 C6.35650242,1.78169524 6.40582231,1.85327177 6.46189835,1.91201854 C6.98752673,2.47315146 6.56661866,2.89248185 6.74227853,3.55962906 C6.9179384,4.22542577 6.7774105,5.17145132 6.2511065,5.17145132 C5.72547811,5.17145132 5.65521416,4.57655588 6.04031465,4.36520257 C6.42609076,4.15519975 6.21597452,3.384064 5.83019842,3.384064 C5.60521866,3.384064 5.51401065,3.12004117 5.52346926,2.81077657 C4.80799308,3.00862488 3.98509414,2.91814136 3.02504538,2.80402407 C3.04058452,2.84453908 3.05544805,2.88437884 3.05882612,2.92894536 C3.0939581,3.34895099 3.30407433,4.29497654 3.86551031,5.03099928 C4.42694628,5.76769726 4.04049456,6.22349116 4.56679857,6.50372 C5.09310257,6.78394884 5.0579706,7.09996594 4.56679857,7.02838941 C4.07562654,6.95951389 4.42627067,7.41530779 4.25196203,8.46802287 C4.07630215,9.52006271 4.11143413,11.6909921 4.0060382,12.3594899 C3.90064228,13.0239361 3.12841446,14.1117642 3.58513012,14.8126739 C4.04049456,15.5135836 4.35668233,16.4947222 4.11075851,17.371197 C3.86551031,18.2476717 3.89996667,18.7723411 4.28574277,19.4388131 C4.67151888,20.1052851 4.35600672,21.2619887 4.77759041,21.5071045 C5.19849849,21.7535708 5.5842746,22.2431273 5.9700507,22.873811 C6.35582681,23.5058452 6.70647094,23.119602 6.77605927,23.750961 C6.84632322,24.3816447 6.84632322,24.4869837 7.40708358,24.7320995 C7.96919518,24.9772154 7.61787543,25.6072238 7.61787543,25.9583539 C7.61787543,26.3081335 8.35429567,26.940843 9.26637578,27.7464165 C10.1777803,28.55199 9.40622806,29.2177867 10.0723843,29.2177867 C10.7392162,29.2177867 11.3702406,29.6040298 12.0363968,30.0247107 C12.7025531,30.4453916 12.913345,30.1989253 13.369385,30.3042643 C13.8247495,30.4096034 14.6672412,31.3914172 14.8422255,32.0572139 C14.9246505,32.37053 15.0320733,32.7000521 15.1975989,33.0552337 L18.8337583,32.578507 C18.8337583,32.578507 19.9586571,33.3658488 20.5950863,33.5150791 C21.2321912,33.6643094 24.6791784,34.937156 24.6791784,34.937156 L29.1753955,34.8979915 L29.6996727,34.2254423 L32.1730988,34.2254423 C32.1730988,34.2254423 33.7466059,35.7602861 33.9715856,35.8372646 C34.1965654,35.9108669 34.9836568,36.6219053 34.9836568,37.0722972 C34.9836568,37.5213386 35.1708021,37.8961025 35.5457683,38.0831468 C35.920059,38.2701911 37.1942687,39.0939964 37.381414,39.0183683 C37.5685593,38.9454413 37.9442012,37.5213386 38.6177893,37.5598279 C39.2927286,37.5962914 41.1283742,38.1196103 41.4283472,39.1689491 C41.7276446,40.218288 42.6262124,41.0799072 42.9268611,41.3034151 C43.2261585,41.5275981 43.0768476,42.1643591 43.3018273,42.5026594 C43.5261315,42.8396093 43.4889727,43.475695 43.7504356,43.475695 C44.0139254,43.475695 45.3624528,44.3001755 45.9617232,44.2616863 C46.1407611,44.2515575 46.3765507,44.3589223 46.6197721,44.5074773 C46.6927385,43.2555634 45.4029897,43.0442101 46.1623808,42.4688969 C47.0393289,41.8017497 46.1272488,41.241292 46.5481569,40.9610632 C46.9697406,40.6808344 47.7054852,40.3999303 47.7054852,39.9799246 C47.7054852,39.5592438 48.0912613,39.5592438 48.6520217,39.6294698 C49.2134577,39.6983453 50.2653901,38.7165315 50.1951261,38.3316389 C50.1248622,37.946071 50.2998464,37.8771955 50.9666783,38.0156218 C51.6328346,38.1567491 51.5281143,37.2438108 51.9490224,37.3849381 C52.3699305,37.5247149 52.7212502,37.7705059 52.7557066,37.4551641 C52.7901629,37.1398222 53.2117466,37.2100483 53.5272588,37.6307291 C53.8427709,38.0507348 54.7541754,38.1567491 54.8244394,37.6665174 C54.8947033,37.1756105 55.4210073,37.6665174 55.8770474,38.1574243 C56.3324118,38.6483312 56.5432037,38.5072039 57.2093599,38.5423169 C57.8761919,38.5781052 57.8761919,38.4018649 57.9106482,37.9818593 C57.9457802,37.5618536 58.6470684,38.8927718 59.3139003,38.9629978 C59.9800566,39.0338991 59.4544282,38.5423169 58.9632562,38.1574243 C58.4720842,37.7718564 59.0679765,37.5956161 58.6470684,37.2809495 C58.2261604,36.9649324 59.1726968,36.5435763 60.014513,36.5807151 C60.8563292,36.6144776 60.8211972,36.8258309 61.1373849,36.334924 C61.4528971,35.8426666 61.7684093,36.334924 61.7684093,36.7549296 C61.7684093,37.1762858 63.1365294,36.510489 63.8729497,36.510489 C64.6093699,36.510489 65.2755262,37.1404975 65.3457901,37.5625289 C65.4160541,37.9825345 65.9072261,38.1932126 66.4335301,37.7367434 C66.9591585,37.2816248 67.4151986,36.7556049 67.9063706,37.2451613 C68.3975426,37.7367434 68.888039,38.4025401 69.484607,38.9987861 C70.0804993,39.5936815 69.2042268,40.33173 69.5197389,40.7861734 C69.8359267,41.2419673 69.484607,41.8733262 70.1858952,42.3642332 C70.8871835,42.8551401 70.2561592,43.8713916 70.8175952,44.0118437 C71.3790311,44.1516205 71.8343956,45.02742 71.9046595,45.3778749 C71.9749235,45.7283297 73.0268559,46.1841236 73.0971198,45.5885529 C73.1673838,44.9929822 73.7294954,44.290722 73.7990837,43.7309396 C73.8693476,43.1704819 73.3781756,41.1717413 72.9221356,40.5410576 C72.4667711,39.9096986 73.0275315,39.7685713 72.4667711,39.0345743 C71.9053351,38.2965259 71.554691,37.0000454 71.589823,35.9486809 C71.624955,34.896641 72.8525472,33.1794797 73.4484396,32.6527846 C74.0450075,32.1287904 74.7111638,32.408344 74.8516917,31.8472111 C74.9922196,31.2867534 75.7286398,30.5865189 76.1488723,30.5865189 C76.5697804,30.5865189 77.0251448,30.6905074 77.0954088,30.236064 C77.1656727,29.7802702 77.866961,29.2177867 78.7790411,29.0786852 C79.6911212,28.9382331 79.1648172,28.4459757 78.919569,28.0266453 C78.6743208,27.6059645 79.1303608,27.1852836 79.3053451,27.4648372 C79.481005,27.7464165 80.0424409,27.7808543 80.3924095,27.5350632 C80.7430536,27.2899474 81.5504134,26.6248259 80.7781856,26.5897129 C80.0059577,26.5545999 79.8309735,26.2385828 80.2870135,26.0630177 C80.742378,25.8888032 80.3572775,25.0474414 79.7255776,24.9772154 C79.0938776,24.9069893 79.3046695,24.592998 79.6904456,24.2047291 C80.0762217,23.8198365 79.1290096,23.1898281 78.6736452,22.8731357 C78.2176051,22.5577939 78.9540253,22.382904 79.3046695,22.312678 C79.6553136,22.242452 79.3749334,20.6292792 79.5505933,20.2443866 C79.7255776,19.859494 80.3221455,19.859494 80.0768973,20.2443866 C79.8309735,20.628604 79.4803293,21.2606382 79.9363694,21.7859829 C80.3924095,22.3120028 80.5329374,22.8724605 80.3572775,23.6793845 C80.1816176,24.4863085 80.5329374,24.2763056 81.0585657,23.2229153 C81.5848697,22.1715507 81.6544581,21.2606382 81.3044896,21.1546239 C80.9531698,21.0506354 80.9883018,19.9985955 81.3747535,20.4888272 C81.759854,20.9804094 81.9003819,21.0506354 82.4969499,20.4186012 C83.0928422,19.7879175 83.7245421,18.7027904 83.338766,18.456324 C82.9529899,18.2112082 83.5144259,17.9647419 84.2157141,18.0018807 C84.9170024,18.0363184 86.4249749,17.579174 86.5303708,17.3698465 C86.8729075,16.6851427 84.1103182,17.6851883 84.1103182,17.2996204 C84.1103182,16.9133773 85.8642145,16.5278094 86.6708987,16.4940469 C87.4775829,16.4589339 87.0924824,15.3724563 87.4424509,15.827575 C87.793095,16.2833689 88.319399,16.2124676 88.7747635,15.932914 C89.2314791,15.6526852 88.880835,14.8464364 88.354531,14.7073349 C87.8289026,14.5655323 88.7403071,14.2150774 88.5653228,13.9004108 C88.389663,13.5843937 88.9166426,12.3223511 89.5821233,12.1832496 C90.2489552,12.0434728 89.933443,11.6214414 90.4942034,11.6214414 C91.0549637,11.6214414 91.1603596,10.9556447 91.6508561,10.465413 C92.1420281,9.97383085 92.843992,11.2351983 93.6155442,10.5349638 C93.9310563,10.2479824 94.3587206,9.92926434 94.7971946,9.64971075 C93.000059,7.27553099 93.508797,5.68734249 93.4655577,5.2558576 Z" id="us" fill="#000000"></path>
    </g>
</svg>