<?xml version="1.0" encoding="UTF-8"?>
<svg width="10193px" height="5265px" viewBox="0 0 10193 5265" version="1.1" xmlns="http://www.w3.org/2000/svg" xmlns:xlink="http://www.w3.org/1999/xlink">
    <!-- Generator: Sketch 51.2 (57519) - http://www.bohemiancoding.com/sketch -->
    <title>au</title>
    <desc>Created with Sketch.</desc>
    <defs>
        <path d="M0,0 L0,1260 L5880,1260 L5880,2520 L5040,2520 L0,0 Z M5040,0 L2520,0 L2520,2940 L0,2940 L0,2520 L5040,0 Z" id="path-1"></path>
    </defs>
    <g id="Page-1" stroke="none" stroke-width="1" fill="none" fill-rule="evenodd">
        <g id="au" transform="translate(113.000000, 225.000000)">
            <g id="Group">
                <rect id="Rectangle-path" fill="#00008B" fill-rule="nonzero" x="0" y="0" width="10080" height="5040"></rect>
                <path d="M0,0 L5040,2520 M5040,0 L0,2520" id="Shape" stroke="#FFFFFF" stroke-width="504" fill="#000000" fill-rule="nonzero"></path>
                <g id="Clipped">
                    <mask id="mask-2" fill="white">
                        <use xlink:href="#path-1"></use>
                    </mask>
                    <g id="Shape"></g>
                    <path d="M0,0 L5040,2520 M5040,0 L0,2520" id="Shape" stroke="#FF0000" stroke-width="336" fill="#000000" fill-rule="nonzero" mask="url(#mask-2)"></path>
                </g>
                <path d="M2520,0 L2520,2940 M0,1260 L5880,1260" id="Shape" stroke="#FFFFFF" stroke-width="840" fill="#000000" fill-rule="nonzero"></path>
                <path d="M2520,0 L2520,2940 M0,1260 L5880,1260" id="Shape" stroke="#FF0000" stroke-width="504" fill="#000000" fill-rule="nonzero"></path>
                <polygon id="Shape" fill="#00008B" fill-rule="nonzero" points="0 2520 5040 2520 5040 0 6720 0 6720 3360 0 3360"></polygon>
            </g>
            <g id="Group" transform="translate(1782.000000, 480.000000)" fill="#FFFFFF" fill-rule="nonzero">
                <g id="Comwlth" transform="translate(0.000000, 2544.000000)">
                    <g id="Cstar" transform="translate(0.900000, 0.000000)">
                        <polygon id="Star7" points="737.1 0 882.884936 453.27446 1328.1646 284.641709 1064.67578 681.232967 1474.1455 924.225826 999.795378 965.492573 1065.11611 1437.13246 737.1 1092 409.083893 1437.13246 474.404622 965.492573 0.0544992 924.225826 409.524221 681.232967 146.035399 284.641709 591.315064 453.27446"></polygon>
                    </g>
                </g>
                <g id="αCrucis" transform="translate(5427.000000, 3360.000000)">
                    <polygon id="Star7" points="351 0 420.421398 215.844981 632.459334 135.543671 506.988466 324.396651 701.974048 440.107536 476.093037 459.758368 507.198146 684.348792 351 520 194.801854 684.348792 225.906963 459.758368 0.025952 440.107536 195.011534 324.396651 69.540666 135.543671 281.578602 215.844981"></polygon>
                </g>
                <g id="βCrucis" transform="translate(4167.000000, 1365.000000)">
                    <polygon id="Star7" points="351 0 420.421398 215.844981 632.459334 135.543671 506.988466 324.396651 701.974048 440.107536 476.093037 459.758368 507.198146 684.348792 351 520 194.801854 684.348792 225.906963 459.758368 0.025952 440.107536 195.011534 324.396651 69.540666 135.543671 281.578602 215.844981"></polygon>
                </g>
                <g id="γCrucis" transform="translate(5427.000000, 0.000000)">
                    <polygon id="Star7" points="351 0 420.421398 215.844981 632.459334 135.543671 506.988466 324.396651 701.974048 440.107536 476.093037 459.758368 507.198146 684.348792 351 520 194.801854 684.348792 225.906963 459.758368 0.025952 440.107536 195.011534 324.396651 69.540666 135.543671 281.578602 215.844981"></polygon>
                </g>
                <g id="δCrucis" transform="translate(6547.000000, 1029.000000)">
                    <polygon id="Star7" points="351 0 420.421398 215.844981 632.459334 135.543671 506.988466 324.396651 701.974048 440.107536 476.093037 459.758368 507.198146 684.348792 351 520 194.801854 684.348792 225.906963 459.758368 0.025952 440.107536 195.011534 324.396651 69.540666 135.543671 281.578602 215.844981"></polygon>
                </g>
                <g id="εCrucis" transform="translate(6082.000000, 2040.000000)">
                    <polygon id="Star5" points="200 0 254.859957 134.491747 399.721868 145.106431 288.765275 238.841586 323.434903 379.893569 200 303.333333 76.565097 379.893569 111.234725 238.841586 0.278132 145.106431 145.140043 134.491747"></polygon>
                </g>
            </g>
        </g>
    </g>
</svg>