<?xml version="1.0" encoding="UTF-8"?>
<svg width="7410px" height="3900px" viewBox="0 0 7410 3900" version="1.1" xmlns="http://www.w3.org/2000/svg" xmlns:xlink="http://www.w3.org/1999/xlink">
    <!-- Generator: Sketch 51.2 (57519) - http://www.bohemiancoding.com/sketch -->
    <title>us</title>
    <desc>Created with Sketch.</desc>
    <defs></defs>
    <g id="Page-1" stroke="none" stroke-width="1" fill="none" fill-rule="evenodd">
        <g id="us" fill-rule="nonzero">
            <rect id="Rectangle-path" fill="#B22234" x="0" y="0" width="7410" height="3900"></rect>
            <path d="M0,450 L7410,450 M7410,1050 L0,1050 M0,1650 L7410,1650 M7410,2250 L0,2250 M0,2850 L7410,2850 M7410,3450 L0,3450" id="Shape" stroke="#FFFFFF" stroke-width="300" fill="#000000"></path>
            <rect id="Rectangle-path" fill="#3C3B6E" x="0" y="0" width="2964" height="2100"></rect>
            <polygon id="s" fill="#FFFFFF" points="247 90 317.53423 307.082039 132.873218 172.917961 361.126782 172.917961 176.46577 307.082039"></polygon>
            <polygon id="s" fill="#FFFFFF" points="247 510 317.53423 727.082039 132.873218 592.917961 361.126782 592.917961 176.46577 727.082039"></polygon>
            <polygon id="s" fill="#FFFFFF" points="247 930 317.53423 1147.08204 132.873218 1012.91796 361.126782 1012.91796 176.46577 1147.08204"></polygon>
            <polygon id="s" fill="#FFFFFF" points="247 1350 317.53423 1567.08204 132.873218 1432.91796 361.126782 1432.91796 176.46577 1567.08204"></polygon>
            <polygon id="s" fill="#FFFFFF" points="247 1770 317.53423 1987.08204 132.873218 1852.91796 361.126782 1852.91796 176.46577 1987.08204"></polygon>
            <polygon id="s" fill="#FFFFFF" points="494 300 564.53423 517.082039 379.873218 382.917961 608.126782 382.917961 423.46577 517.082039"></polygon>
            <polygon id="s" fill="#FFFFFF" points="494 720 564.53423 937.082039 379.873218 802.917961 608.126782 802.917961 423.46577 937.082039"></polygon>
            <polygon id="s" fill="#FFFFFF" points="494 1140 564.53423 1357.08204 379.873218 1222.91796 608.126782 1222.91796 423.46577 1357.08204"></polygon>
            <polygon id="s" fill="#FFFFFF" points="494 1560 564.53423 1777.08204 379.873218 1642.91796 608.126782 1642.91796 423.46577 1777.08204"></polygon>
            <polygon id="s" fill="#FFFFFF" points="741 90 811.53423 307.082039 626.873218 172.917961 855.126782 172.917961 670.46577 307.082039"></polygon>
            <polygon id="s" fill="#FFFFFF" points="741 510 811.53423 727.082039 626.873218 592.917961 855.126782 592.917961 670.46577 727.082039"></polygon>
            <polygon id="s" fill="#FFFFFF" points="741 930 811.53423 1147.08204 626.873218 1012.91796 855.126782 1012.91796 670.46577 1147.08204"></polygon>
            <polygon id="s" fill="#FFFFFF" points="741 1350 811.53423 1567.08204 626.873218 1432.91796 855.126782 1432.91796 670.46577 1567.08204"></polygon>
            <polygon id="s" fill="#FFFFFF" points="741 1770 811.53423 1987.08204 626.873218 1852.91796 855.126782 1852.91796 670.46577 1987.08204"></polygon>
            <polygon id="s" fill="#FFFFFF" points="988 300 1058.53423 517.082039 873.873218 382.917961 1102.12678 382.917961 917.46577 517.082039"></polygon>
            <polygon id="s" fill="#FFFFFF" points="988 720 1058.53423 937.082039 873.873218 802.917961 1102.12678 802.917961 917.46577 937.082039"></polygon>
            <polygon id="s" fill="#FFFFFF" points="988 1140 1058.53423 1357.08204 873.873218 1222.91796 1102.12678 1222.91796 917.46577 1357.08204"></polygon>
            <polygon id="s" fill="#FFFFFF" points="988 1560 1058.53423 1777.08204 873.873218 1642.91796 1102.12678 1642.91796 917.46577 1777.08204"></polygon>
            <polygon id="s" fill="#FFFFFF" points="1235 90 1305.53423 307.082039 1120.87322 172.917961 1349.12678 172.917961 1164.46577 307.082039"></polygon>
            <polygon id="s" fill="#FFFFFF" points="1235 510 1305.53423 727.082039 1120.87322 592.917961 1349.12678 592.917961 1164.46577 727.082039"></polygon>
            <polygon id="s" fill="#FFFFFF" points="1235 930 1305.53423 1147.08204 1120.87322 1012.91796 1349.12678 1012.91796 1164.46577 1147.08204"></polygon>
            <polygon id="s" fill="#FFFFFF" points="1235 1350 1305.53423 1567.08204 1120.87322 1432.91796 1349.12678 1432.91796 1164.46577 1567.08204"></polygon>
            <polygon id="s" fill="#FFFFFF" points="1235 1770 1305.53423 1987.08204 1120.87322 1852.91796 1349.12678 1852.91796 1164.46577 1987.08204"></polygon>
            <polygon id="s" fill="#FFFFFF" points="1482 300 1552.53423 517.082039 1367.87322 382.917961 1596.12678 382.917961 1411.46577 517.082039"></polygon>
            <polygon id="s" fill="#FFFFFF" points="1482 720 1552.53423 937.082039 1367.87322 802.917961 1596.12678 802.917961 1411.46577 937.082039"></polygon>
            <polygon id="s" fill="#FFFFFF" points="1482 1140 1552.53423 1357.08204 1367.87322 1222.91796 1596.12678 1222.91796 1411.46577 1357.08204"></polygon>
            <polygon id="s" fill="#FFFFFF" points="1482 1560 1552.53423 1777.08204 1367.87322 1642.91796 1596.12678 1642.91796 1411.46577 1777.08204"></polygon>
            <polygon id="s" fill="#FFFFFF" points="1729 90 1799.53423 307.082039 1614.87322 172.917961 1843.12678 172.917961 1658.46577 307.082039"></polygon>
            <polygon id="s" fill="#FFFFFF" points="1729 510 1799.53423 727.082039 1614.87322 592.917961 1843.12678 592.917961 1658.46577 727.082039"></polygon>
            <polygon id="s" fill="#FFFFFF" points="1729 930 1799.53423 1147.08204 1614.87322 1012.91796 1843.12678 1012.91796 1658.46577 1147.08204"></polygon>
            <polygon id="s" fill="#FFFFFF" points="1729 1350 1799.53423 1567.08204 1614.87322 1432.91796 1843.12678 1432.91796 1658.46577 1567.08204"></polygon>
            <polygon id="s" fill="#FFFFFF" points="1729 1770 1799.53423 1987.08204 1614.87322 1852.91796 1843.12678 1852.91796 1658.46577 1987.08204"></polygon>
            <polygon id="s" fill="#FFFFFF" points="1976 300 2046.53423 517.082039 1861.87322 382.917961 2090.12678 382.917961 1905.46577 517.082039"></polygon>
            <polygon id="s" fill="#FFFFFF" points="1976 720 2046.53423 937.082039 1861.87322 802.917961 2090.12678 802.917961 1905.46577 937.082039"></polygon>
            <polygon id="s" fill="#FFFFFF" points="1976 1140 2046.53423 1357.08204 1861.87322 1222.91796 2090.12678 1222.91796 1905.46577 1357.08204"></polygon>
            <polygon id="s" fill="#FFFFFF" points="1976 1560 2046.53423 1777.08204 1861.87322 1642.91796 2090.12678 1642.91796 1905.46577 1777.08204"></polygon>
            <polygon id="s" fill="#FFFFFF" points="2223 510 2293.53423 727.082039 2108.87322 592.917961 2337.12678 592.917961 2152.46577 727.082039"></polygon>
            <polygon id="s" fill="#FFFFFF" points="2223 930 2293.53423 1147.08204 2108.87322 1012.91796 2337.12678 1012.91796 2152.46577 1147.08204"></polygon>
            <polygon id="s" fill="#FFFFFF" points="2223 90 2293.53423 307.082039 2108.87322 172.917961 2337.12678 172.917961 2152.46577 307.082039"></polygon>
            <polygon id="s" fill="#FFFFFF" points="2223 1350 2293.53423 1567.08204 2108.87322 1432.91796 2337.12678 1432.91796 2152.46577 1567.08204"></polygon>
            <polygon id="s" fill="#FFFFFF" points="2223 1770 2293.53423 1987.08204 2108.87322 1852.91796 2337.12678 1852.91796 2152.46577 1987.08204"></polygon>
            <polygon id="s" fill="#FFFFFF" points="2470 300 2540.53423 517.082039 2355.87322 382.917961 2584.12678 382.917961 2399.46577 517.082039"></polygon>
            <polygon id="s" fill="#FFFFFF" points="2470 720 2540.53423 937.082039 2355.87322 802.917961 2584.12678 802.917961 2399.46577 937.082039"></polygon>
            <polygon id="s" fill="#FFFFFF" points="2470 1140 2540.53423 1357.08204 2355.87322 1222.91796 2584.12678 1222.91796 2399.46577 1357.08204"></polygon>
            <polygon id="s" fill="#FFFFFF" points="2470 1560 2540.53423 1777.08204 2355.87322 1642.91796 2584.12678 1642.91796 2399.46577 1777.08204"></polygon>
            <polygon id="s" fill="#FFFFFF" points="2717 90 2787.53423 307.082039 2602.87322 172.917961 2831.12678 172.917961 2646.46577 307.082039"></polygon>
            <polygon id="s" fill="#FFFFFF" points="2717 510 2787.53423 727.082039 2602.87322 592.917961 2831.12678 592.917961 2646.46577 727.082039"></polygon>
            <polygon id="s" fill="#FFFFFF" points="2717 930 2787.53423 1147.08204 2602.87322 1012.91796 2831.12678 1012.91796 2646.46577 1147.08204"></polygon>
            <polygon id="s" fill="#FFFFFF" points="2717 1350 2787.53423 1567.08204 2602.87322 1432.91796 2831.12678 1432.91796 2646.46577 1567.08204"></polygon>
            <polygon id="s" fill="#FFFFFF" points="2717 1770 2787.53423 1987.08204 2602.87322 1852.91796 2831.12678 1852.91796 2646.46577 1987.08204"></polygon>
        </g>
    </g>
</svg>